<?xml version="1.0" standalone="no"?>
<!DOCTYPE svg PUBLIC "-//W3C//DTD SVG 20010904//EN"
 "http://www.w3.org/TR/2001/REC-SVG-20010904/DTD/svg10.dtd">
<svg version="1.0" xmlns="http://www.w3.org/2000/svg"
 width="720.000000pt" height="720.000000pt" viewBox="0 0 720.000000 720.000000"
 preserveAspectRatio="xMidYMid meet">
<metadata>
Created by potrace 1.11, written by Peter Selinger 2001-2013
</metadata>
<g transform="translate(0.000000,720.000000) scale(0.100000,-0.100000)"
fill="#000000" stroke="none">
<path d="M1306 6643 c-3 -4 -37 -8 -74 -10 -84 -3 -98 -6 -146 -26 -21 -10
-42 -17 -47 -17 -5 0 -9 -4 -9 -8 0 -5 -12 -15 -27 -23 -16 -8 -41 -27 -57
-44 -16 -16 -33 -29 -38 -27 -4 1 -7 -4 -6 -10 2 -8 -5 -12 -17 -10 -15 2 -16
0 -7 -6 12 -8 12 -13 1 -31 -8 -11 -17 -21 -21 -21 -5 0 -8 -9 -8 -20 0 -11
-5 -20 -11 -20 -5 0 -8 -4 -4 -9 3 -5 -1 -15 -8 -23 -8 -7 -13 -21 -11 -31 1
-9 -2 -19 -6 -22 -5 -3 -7 -12 -3 -20 3 -8 0 -16 -6 -16 -6 -1 -15 -2 -20 -3
-6 0 -16 -7 -23 -15 -11 -12 -10 -12 2 -5 19 11 40 14 40 6 0 -4 -6 -18 -13
-33 -8 -14 -13 -33 -11 -43 2 -12 -2 -16 -13 -12 -14 6 -14 4 -2 -11 12 -15
12 -16 -3 -10 -10 3 -18 2 -18 -3 0 -6 8 -10 18 -10 14 0 15 -2 2 -10 -8 -5
-11 -10 -7 -10 4 0 3 -9 -3 -20 -9 -17 -8 -20 9 -20 11 0 23 -5 26 -10 4 -6
10 -8 15 -5 5 3 11 1 14 -4 7 -11 -13 -9 -32 3 -7 4 -15 6 -18 3 -3 -2 11 -12
31 -21 19 -9 35 -19 35 -22 0 -3 -4 -3 -9 0 -5 3 -12 -2 -15 -11 -4 -10 -4
-14 0 -10 4 4 13 2 20 -3 17 -15 53 -20 60 -9 3 5 0 8 -6 7 -7 -2 -14 8 -16
22 l-5 25 17 -23 c11 -16 22 -21 35 -17 15 5 18 2 16 -13 -2 -11 -9 -28 -17
-39 -9 -12 -6 -11 9 4 19 17 28 19 47 11 12 -6 21 -16 20 -22 -2 -6 -1 -8 1
-4 2 3 16 4 31 2 21 -3 23 -2 12 6 -13 8 -13 10 2 10 9 0 19 -6 21 -12 4 -10
6 -10 6 0 1 6 5 12 11 12 5 0 7 -6 4 -14 -4 -11 0 -13 16 -9 17 5 19 8 8 15
-14 10 -4 8 35 -7 11 -5 17 -3 17 6 0 7 2 10 5 7 3 -3 3 -13 -1 -22 -5 -12
-10 -14 -19 -6 -18 15 -45 2 -38 -18 6 -14 7 -13 13 2 6 17 7 17 23 2 9 -9 22
-15 29 -14 7 2 12 -3 10 -9 -3 -18 15 -16 22 2 3 9 12 12 22 8 10 -4 15 -2 11
3 -3 6 -1 16 5 24 8 12 9 12 4 -2 -3 -10 -1 -20 4 -23 6 -4 10 2 10 12 0 15 2
16 10 3 9 -14 -6 -33 -20 -25 -4 2 -7 -2 -7 -9 0 -8 7 -12 15 -8 10 3 13 1 8
-6 -4 -7 -2 -12 4 -12 7 0 10 7 6 15 -5 13 4 18 30 14 4 0 11 5 15 13 7 10 9
10 9 0 0 -7 5 -10 12 -6 7 5 8 3 3 -6 -5 -8 -3 -11 6 -8 8 3 13 11 11 17 -1 7
2 10 8 6 8 -5 7 -12 -2 -22 -11 -14 -10 -15 12 -9 17 5 21 4 11 -2 -11 -8 -9
-11 8 -17 12 -3 19 -11 16 -16 -3 -5 1 -6 9 -3 14 6 21 -5 17 -28 0 -5 4 -8
10 -8 6 0 8 8 4 19 -7 23 15 43 35 31 8 -5 22 -5 34 1 19 9 20 9 4 -4 -10 -8
-16 -16 -13 -18 2 -3 -6 -6 -18 -6 -17 -2 -18 0 -7 7 11 7 10 9 -7 7 -15 -1
-19 -5 -13 -13 6 -6 6 -14 2 -19 -4 -4 3 -2 16 4 19 10 23 9 31 -10 l8 -23 5
22 c4 15 2 20 -5 15 -7 -4 -6 1 2 10 15 18 26 23 16 7 -3 -5 -1 -10 4 -10 6 0
11 8 11 18 0 14 2 15 10 2 6 -10 4 -18 -8 -25 -20 -12 -26 -46 -6 -38 7 2 10
12 7 21 -4 9 -3 14 2 10 4 -4 15 -2 22 4 12 10 14 8 11 -8 -1 -10 -7 -23 -13
-27 -6 -5 -2 -6 9 -3 11 4 23 1 27 -6 5 -8 8 -6 7 9 -1 11 -7 20 -13 19 -5 -2
-7 -1 -3 1 5 3 3 14 -3 26 -9 19 -7 18 10 -3 11 -14 21 -28 21 -32 0 -13 48
-9 53 5 4 9 6 9 6 -1 1 -7 6 -10 11 -7 16 10 11 -1 -7 -16 -14 -12 -16 -12 -8
0 5 10 4 12 -3 7 -17 -10 -15 -23 4 -30 8 -3 13 -2 10 2 -3 5 8 16 23 25 23
14 28 14 28 2 0 -14 -10 -19 -29 -16 -5 0 -8 -3 -8 -8 0 -9 22 -20 45 -22 6 0
17 -6 25 -12 13 -11 13 -10 0 7 -14 18 -13 19 3 13 19 -7 49 1 43 12 -3 4 6 7
19 7 13 0 22 -3 19 -7 -5 -8 14 -22 34 -25 6 -1 12 3 12 9 0 7 5 4 11 -5 5
-10 16 -15 24 -12 8 4 15 2 15 -3 0 -4 13 -9 30 -9 18 -1 27 2 23 9 -3 6 -1 7
5 3 15 -9 0 -40 -26 -55 -9 -6 -12 -10 -7 -11 6 0 17 5 25 10 10 6 22 4 37 -6
13 -8 23 -11 23 -7 0 4 6 -2 14 -12 11 -16 16 -17 29 -7 13 11 17 10 26 -5 7
-12 10 -13 11 -4 0 11 3 11 15 1 8 -7 15 -9 15 -5 0 4 8 -1 18 -12 9 -10 14
-14 10 -9 -15 19 -8 26 11 14 11 -7 17 -16 14 -22 -3 -5 -1 -6 6 -2 15 10 9
31 -9 31 -7 0 -15 5 -17 12 -3 7 4 11 16 10 11 0 17 -5 14 -11 -4 -5 1 -7 10
-3 10 4 14 2 11 -6 -2 -7 6 -13 21 -13 20 -2 23 1 15 11 -8 9 -8 15 0 20 6 4
9 1 8 -7 -2 -8 7 -13 29 -12 29 0 31 -1 22 -23 -11 -31 -12 -30 4 -36 8 -3 14
1 14 9 0 7 -4 11 -9 8 -4 -3 -5 3 -1 12 4 11 8 13 11 6 2 -7 8 -10 13 -6 11 7
61 -31 52 -40 -3 -3 -12 -1 -19 4 -8 8 -16 6 -27 -4 -8 -8 -18 -12 -22 -8 -5
4 -5 2 -1 -5 7 -13 36 -6 36 9 0 5 5 6 10 3 6 -4 8 -10 6 -14 -3 -4 1 -8 9 -8
8 0 12 4 9 9 -4 5 0 9 7 7 8 -1 23 -1 34 0 16 1 17 3 5 11 -9 6 -17 5 -22 -3
-5 -7 -8 -8 -8 -1 0 5 7 19 15 30 9 11 13 13 10 4 -3 -9 4 -21 16 -28 19 -12
20 -12 14 10 -6 22 -5 22 7 3 14 -22 25 -25 46 -12 6 5 12 4 12 -1 0 -6 -7
-12 -15 -16 -8 -3 -15 -13 -15 -23 0 -10 4 -14 8 -8 4 6 15 16 25 24 15 12 17
12 11 -3 -3 -9 -11 -16 -17 -16 -6 0 -8 -3 -4 -6 3 -3 12 -2 19 2 7 5 19 9 27
11 8 1 18 8 22 15 6 9 8 6 7 -9 -2 -16 -8 -20 -26 -18 -21 2 -22 1 -9 -12 12
-12 18 -13 35 -2 11 7 18 19 15 28 -4 14 -3 14 5 1 6 -8 9 -17 6 -21 -2 -4 5
-7 16 -6 11 1 20 6 20 12 0 5 6 3 13 -6 7 -9 20 -15 30 -13 10 1 21 -4 24 -12
3 -8 10 -11 17 -7 6 3 7 2 3 -2 -14 -16 -36 -14 -30 3 4 15 3 15 -6 2 -9 -12
-11 -13 -11 -1 0 8 -2 12 -5 9 -10 -10 7 -39 20 -34 7 2 18 -1 25 -7 9 -9 11
-9 7 -1 -9 15 22 27 37 15 17 -14 28 -14 37 0 4 8 11 10 16 6 4 -5 3 -11 -2
-15 -15 -11 -17 -40 -4 -48 8 -4 9 -3 5 4 -4 6 0 24 9 39 13 23 14 18 2 -17
-1 -3 3 -5 8 -5 6 0 9 4 7 8 -1 5 2 5 8 2 6 -4 9 -13 6 -21 -6 -16 13 -31 23
-17 11 16 57 1 47 -16 -3 -4 0 -13 5 -21 8 -12 9 -11 7 4 -2 10 3 21 11 24 9
3 11 0 6 -9 -5 -8 -5 -11 0 -7 4 4 17 3 29 -3 13 -7 9 -1 -9 14 -18 15 -33 21
-36 15 -4 -6 -9 -6 -12 -2 -3 5 1 15 9 22 8 8 14 9 14 2 0 -6 16 -18 35 -27
19 -9 32 -20 29 -25 -3 -4 2 -5 10 -2 9 3 16 2 16 -3 0 -6 12 -15 26 -21 14
-7 23 -8 20 -3 -4 5 -1 11 6 13 7 3 5 7 -6 11 -10 4 -15 3 -11 -3 8 -13 -3
-13 -18 0 -7 6 -21 17 -31 24 -15 10 -16 15 -6 21 9 6 11 4 5 -5 -6 -10 -4
-12 9 -7 10 4 19 1 22 -6 5 -15 44 -20 44 -6 0 5 5 9 11 9 6 0 7 -5 2 -12 -15
-25 -14 -51 2 -44 8 3 15 2 15 -2 0 -5 7 -17 16 -28 15 -18 15 -18 4 3 -5 12
-10 26 -9 30 5 29 -2 36 -17 17 -14 -18 -15 -18 -4 4 9 18 14 20 31 12 11 -6
25 -8 31 -4 7 4 8 3 4 -4 -9 -15 -1 -15 27 -1 15 7 12 2 -8 -14 -23 -20 -27
-28 -18 -37 8 -9 15 -6 29 15 13 20 19 23 25 13 5 -7 6 -21 3 -30 -5 -18 6
-24 19 -11 12 11 56 12 63 1 4 -6 2 -8 -4 -4 -6 3 -14 1 -18 -6 -4 -7 -4 -10
1 -6 4 4 15 -1 24 -10 9 -10 12 -12 7 -5 -5 8 -7 15 -5 16 2 1 15 11 28 22
l24 20 -16 -25 c-13 -21 -14 -29 -3 -48 13 -24 13 -23 13 7 0 18 5 37 12 44
11 10 12 7 6 -12 -5 -15 -4 -21 3 -17 6 3 13 2 17 -3 3 -6 -4 -8 -15 -6 -11 2
-18 0 -15 -6 4 -5 11 -6 17 -3 7 5 9 2 5 -8 -6 -16 15 -19 29 -5 4 4 14 1 22
-6 12 -9 16 -9 19 1 7 19 21 14 28 -9 6 -17 9 -18 15 -8 7 11 13 10 29 -5 11
-10 17 -24 14 -30 -4 -6 4 -3 18 6 25 16 27 15 43 -4 13 -15 21 -17 29 -9 19
19 31 12 14 -7 -15 -16 -15 -19 -2 -19 8 0 13 3 10 5 -3 3 0 11 5 17 7 9 6 16
-4 24 -11 9 -15 8 -20 -4 -3 -9 -10 -14 -16 -10 -5 3 -1 14 10 25 21 21 35 27
25 11 -3 -5 -1 -12 5 -16 5 -3 10 0 10 7 0 7 5 5 11 -6 8 -12 14 -15 18 -7 5
8 13 6 27 -6 20 -19 60 -31 50 -15 -3 5 1 9 9 9 7 0 18 -12 24 -26 11 -24 10
-25 -4 -7 -8 11 -18 16 -22 13 -3 -4 -4 -8 -2 -9 2 -2 16 -13 30 -26 22 -19
27 -20 32 -8 4 9 1 14 -6 12 -7 -1 -9 -1 -4 1 4 3 5 8 3 12 -3 4 -1 13 5 21 6
11 9 12 9 2 0 -8 5 -10 13 -6 9 6 8 3 -1 -9 -12 -14 -11 -16 7 -14 12 1 21 6
21 12 0 5 4 4 9 -4 5 -8 7 -20 4 -28 -3 -7 0 -13 6 -13 6 0 11 6 11 14 0 21
22 25 48 8 19 -12 25 -12 40 -1 15 13 16 12 4 -3 -8 -10 -9 -19 -3 -22 5 -3
12 -1 14 4 4 7 5 6 4 0 -2 -7 -7 -12 -12 -12 -6 0 -19 -4 -30 -10 -19 -8 -19
-8 -2 5 16 13 16 15 2 21 -9 3 -13 2 -10 -3 3 -5 0 -13 -6 -17 -7 -4 -9 -3 -6
3 3 5 0 10 -8 10 -8 0 -15 -4 -15 -9 0 -4 5 -8 11 -8 5 0 8 -4 5 -8 -2 -4 6
-8 20 -8 13 0 24 3 24 6 0 3 10 6 23 7 22 2 22 2 2 -14 -15 -12 -16 -14 -3
-10 9 3 19 1 22 -6 3 -7 3 4 1 23 -4 31 -3 33 7 13 6 -13 15 -23 20 -23 5 0 6
6 2 13 -5 9 -4 9 6 0 7 -6 20 -9 29 -6 10 3 12 2 5 -4 -6 -4 -14 -17 -17 -28
-7 -19 -7 -20 8 -1 13 17 15 18 21 2 3 -9 11 -16 18 -15 24 3 37 -1 32 -10 -4
-5 2 -8 11 -7 10 2 24 -4 31 -13 10 -14 11 -13 5 4 -6 17 -4 18 8 8 13 -10 16
-10 16 1 0 8 -8 13 -19 11 -12 -3 -16 0 -11 8 4 7 0 7 -10 -2 -14 -11 -18 -11
-23 2 -3 9 -14 14 -25 12 -24 -5 -33 10 -19 32 10 16 10 16 5 -3 -4 -14 -1
-21 10 -21 11 0 14 7 10 21 -4 15 -1 13 10 -6 9 -16 21 -28 27 -28 7 0 7 4 -1
13 -8 11 -6 13 9 12 11 -1 23 -5 27 -10 5 -4 2 -5 -4 -1 -7 4 -13 3 -13 -3 0
-14 18 -23 25 -12 3 5 14 9 25 8 10 -1 17 -5 14 -9 -3 -4 -12 -4 -20 -1 -13 5
-14 2 -7 -13 6 -10 8 -26 6 -34 -4 -13 -3 -13 6 0 5 8 7 18 4 24 -4 5 -1 6 6
2 7 -5 10 -14 7 -22 -3 -8 -2 -14 3 -14 5 0 11 9 14 20 3 11 1 18 -4 14 -5 -3
-9 0 -9 5 0 6 5 11 11 11 5 0 7 5 3 11 -4 7 3 6 17 -2 13 -7 27 -12 31 -11 5
1 7 -4 5 -10 -1 -8 7 -12 21 -10 12 2 22 -2 22 -8 0 -6 5 -8 13 -4 9 6 9 4 -1
-8 -10 -13 -10 -17 3 -21 9 -4 12 -13 9 -24 -5 -16 -4 -16 5 -2 11 17 66 15
56 -2 -3 -4 4 -6 15 -4 11 2 20 0 20 -6 0 -5 3 -8 8 -8 4 1 10 0 15 -1 4 -1
13 -3 20 -4 6 -1 11 -8 9 -14 -2 -10 3 -10 18 -2 19 10 19 12 4 36 -9 13 -14
27 -11 30 3 3 8 -4 12 -15 3 -12 11 -18 17 -15 6 4 8 2 5 -3 -4 -6 0 -16 8
-23 8 -7 12 -16 9 -21 -3 -5 2 -6 10 -3 8 3 17 12 20 20 4 10 2 12 -6 8 -7 -4
-8 -3 -4 4 4 7 2 12 -4 12 -7 0 -9 -7 -5 -17 4 -13 3 -15 -5 -7 -6 6 -8 18 -4
27 5 13 9 14 24 4 23 -14 21 -42 -5 -60 -15 -12 -16 -15 -4 -22 8 -5 11 -5 7
0 -10 11 24 35 37 27 10 -7 16 -8 36 -11 5 0 7 -7 3 -13 -5 -9 -2 -9 9 1 16
12 21 9 18 -12 -1 -4 8 -3 19 3 11 6 20 13 20 16 0 3 -5 2 -12 -2 -6 -4 -8 -3
-5 3 4 6 -4 9 -18 7 -14 -1 -25 2 -25 6 0 5 -9 7 -20 5 -13 -3 -18 0 -14 7 5
7 2 8 -6 3 -9 -6 -11 -4 -5 5 6 9 4 11 -6 5 -8 -5 -11 -4 -6 0 4 5 18 10 30
11 12 2 16 0 9 -2 -6 -3 -9 -10 -6 -15 3 -6 12 -5 22 3 12 10 14 10 8 1 -7
-12 5 -18 28 -14 15 3 37 -22 32 -36 -4 -10 -1 -11 14 -3 25 13 33 13 24 -2
-4 -7 -3 -8 4 -4 7 4 12 2 12 -4 0 -6 5 -8 11 -4 8 5 8 9 -1 14 -8 5 -8 10 -2
14 13 8 23 -19 16 -41 -3 -10 2 -5 12 11 15 27 18 28 29 13 6 -9 16 -13 20 -9
5 4 5 2 2 -4 -4 -7 5 -11 23 -11 16 0 27 4 24 8 -2 4 0 11 6 14 6 4 9 1 8 -7
-2 -7 3 -12 10 -10 8 1 11 -2 7 -8 -3 -6 -11 -8 -16 -5 -5 4 -4 -5 3 -19 11
-25 28 -35 28 -17 0 11 19 9 38 -2 7 -5 9 -13 6 -19 -4 -7 -2 -8 4 -4 7 4 12
2 12 -5 0 -7 3 -9 7 -6 3 4 11 3 18 -1 6 -4 2 1 -8 11 -24 21 -1 23 27 2 10
-8 22 -12 27 -10 4 3 10 1 14 -5 8 -13 25 -13 25 1 0 5 -5 7 -12 3 -7 -4 -8
-3 -4 4 4 7 -1 10 -14 7 -11 -2 -18 0 -15 4 2 5 -3 8 -12 7 -9 0 -17 5 -19 12
-1 7 0 8 3 2 2 -5 9 -10 14 -10 6 0 6 7 0 18 -7 14 -6 19 4 19 7 0 11 -6 9
-12 -3 -7 2 -18 10 -25 13 -10 17 -9 22 4 3 9 11 16 16 16 6 0 6 -6 -1 -14 -7
-9 -8 -17 -2 -20 5 -3 11 -1 13 5 2 6 9 -1 16 -16 11 -24 11 -27 -3 -22 -8 4
-15 2 -15 -3 0 -14 23 -12 39 3 11 10 13 9 8 -5 -5 -13 0 -15 22 -12 30 5 48
-16 35 -39 -5 -9 -4 -9 5 -1 19 18 -5 57 -30 51 -10 -3 -19 -1 -19 4 0 5 9 9
20 9 11 0 20 5 20 10 0 6 5 10 11 10 8 0 8 -4 0 -14 -9 -11 -6 -13 19 -12 16
0 30 4 30 8 0 5 5 8 11 8 5 0 8 -4 5 -8 -5 -8 35 -48 44 -44 3 1 6 -2 6 -8 1
-5 2 -14 3 -20 2 -20 44 -3 46 18 1 12 5 25 10 29 4 5 4 -3 0 -16 -5 -17 -4
-22 6 -18 8 2 13 9 12 14 -1 5 7 9 17 9 11 0 17 -2 15 -4 -9 -10 17 -42 28
-35 20 12 45 10 40 -3 -2 -6 0 -15 6 -19 6 -3 11 1 11 11 0 17 1 16 13 -1 10
-12 16 -14 21 -7 4 7 2 12 -5 12 -7 0 -10 3 -6 6 10 10 28 -7 20 -19 -12 -19
-12 -38 0 -30 6 4 8 0 4 -10 -3 -10 -2 -18 3 -18 27 -5 35 -3 35 6 0 6 6 19
13 30 8 13 12 15 11 5 -2 -25 13 -60 22 -54 5 3 7 10 4 15 -12 18 -14 49 -3
49 5 0 8 -6 5 -14 -3 -8 5 -26 19 -41 13 -14 24 -29 24 -33 0 -4 -7 1 -14 11
-16 21 -30 23 -23 2 5 -12 2 -12 -18 -3 -15 7 -22 16 -18 27 4 13 3 13 -5 2
-6 -8 -7 -21 -4 -30 5 -14 4 -14 -13 -1 -10 8 -16 10 -12 4 4 -8 -7 -11 -34
-10 -30 1 -46 8 -60 25 -11 13 -19 20 -19 15 0 -4 7 -15 15 -24 14 -15 -42
-16 -755 -16 -424 1 -770 -1 -770 -4 0 -7 -75 -4 -88 4 -6 3 -13 2 -17 -3 -4
-7 -15 -7 -30 -1 -14 5 -25 6 -25 2 0 -4 -128 -7 -284 -7 -156 0 -282 3 -280
7 3 4 -3 5 -12 1 -23 -9 -65 -9 -88 0 -9 4 -15 3 -12 -1 6 -10 -87 -8 -102 2
-6 3 -12 0 -15 -6 -3 -10 -7 -10 -19 -1 -8 7 -18 10 -21 6 -11 -10 -76 -10
-70 1 4 5 1 6 -8 1 -7 -5 -59 -9 -114 -10 -77 0 -103 3 -113 15 -8 8 -11 10
-8 3 9 -16 -12 -27 -28 -14 -7 6 -16 8 -20 4 -9 -10 -228 -11 -248 -1 -9 4
-19 5 -22 0 -6 -10 -68 -8 -85 3 -8 5 -12 4 -8 -1 7 -12 -133 -11 -152 0 -8 5
-12 5 -9 0 4 -5 -71 -9 -177 -10 -114 0 -181 4 -178 10 4 5 1 6 -8 0 -20 -13
-170 -14 -162 -1 4 6 1 7 -8 1 -21 -13 -302 -13 -311 0 -5 8 -8 7 -8 -1 0 -9
-41 -12 -155 -11 -114 0 -153 3 -148 12 4 7 1 6 -9 -2 -19 -15 -190 -14 -200
2 -5 8 -8 7 -8 -1 0 -8 -18 -12 -55 -12 -38 1 -53 4 -48 13 5 8 3 8 -8 -1 -9
-7 -48 -11 -98 -11 -47 0 -86 -4 -90 -10 -3 -6 -5 -39 -4 -73 1 -41 -1 -58 -8
-48 -7 12 -9 11 -9 -3 0 -10 4 -18 9 -18 7 0 8 -18 2 -53 0 -5 -5 -6 -10 -2
-5 3 -13 1 -16 -5 -4 -6 -3 -10 2 -9 25 4 30 -5 29 -58 -1 -32 -5 -64 -9 -70
-5 -7 -4 -13 1 -13 14 0 11 -33 -6 -52 -8 -10 -18 -15 -23 -13 -4 3 -10 1 -13
-4 -7 -10 20 -9 30 2 20 20 30 -17 11 -40 -5 -8 -6 -13 0 -13 5 0 9 -43 9 -95
0 -52 -4 -95 -9 -95 -4 0 -5 5 -1 12 5 7 3 8 -6 3 -10 -6 -10 -11 3 -20 21
-15 22 -26 3 -19 -8 3 -17 1 -20 -4 -3 -5 2 -9 11 -8 27 2 27 -33 1 -61 -12
-13 -18 -24 -13 -23 20 4 35 0 35 -11 0 -5 -6 -7 -13 -3 -7 5 -6 0 3 -11 14
-17 13 -18 -5 -12 -19 7 -19 6 -2 -7 20 -15 23 -36 5 -36 -8 0 -9 -3 -3 -8 19
-13 17 -35 -2 -28 -17 6 -17 5 0 -8 19 -15 23 -36 6 -36 -5 0 -7 6 -3 13 4 6
4 9 -1 5 -4 -4 -15 -3 -24 3 -9 6 -5 1 9 -13 31 -30 38 -53 13 -44 -17 6 -17
5 -1 -8 20 -15 24 -36 7 -36 -5 0 -7 5 -3 12 5 7 3 8 -6 3 -10 -6 -10 -10 3
-20 13 -9 14 -14 4 -25 -9 -10 -9 -11 0 -6 16 9 15 -103 -1 -123 -8 -11 -8
-13 1 -7 8 4 13 1 13 -9 0 -9 -4 -13 -10 -10 -5 3 -10 1 -10 -4 0 -6 4 -11 8
-11 4 0 9 -26 10 -57 1 -41 -1 -53 -8 -43 -8 13 -10 12 -10 -2 0 -10 4 -18 8
-18 14 0 12 -63 -1 -79 -9 -12 -9 -13 0 -8 16 10 15 -92 -1 -112 -8 -11 -8
-13 0 -8 7 4 11 -7 11 -33 0 -35 -2 -38 -16 -27 -14 10 -14 10 -4 -4 7 -9 9
-20 5 -24 -4 -5 -1 -5 5 -1 9 5 13 -1 13 -19 0 -14 -4 -24 -9 -20 -5 3 -13 1
-16 -5 -4 -6 -1 -9 7 -8 9 2 13 -11 13 -50 0 -28 4 -52 8 -52 5 0 5 -5 1 -11
-4 -8 -13 -4 -26 12 l-19 24 12 -27 c7 -16 16 -28 21 -28 13 0 9 -48 -4 -53
-10 -4 -10 -6 0 -6 6 -1 12 -10 12 -22 0 -11 -4 -18 -9 -14 -5 3 -13 1 -16 -5
-4 -6 -1 -9 7 -8 8 2 14 -8 16 -26 3 -21 0 -26 -10 -20 -10 6 -11 5 -1 -7 18
-22 20 -82 3 -96 -13 -11 -13 -12 3 -13 10 0 15 -5 12 -11 -4 -6 -13 -8 -21
-5 -7 3 -16 1 -19 -5 -4 -5 -3 -9 2 -8 22 4 33 -3 33 -22 0 -13 -4 -18 -12
-13 -7 4 -5 -2 5 -13 17 -19 17 -21 1 -27 -16 -6 -15 -8 2 -21 22 -17 12 -20
-16 -5 -13 7 -21 7 -25 0 -4 -6 -3 -10 2 -9 21 4 34 -2 27 -13 -4 -7 -3 -8 5
-4 8 5 11 -1 9 -21 -1 -16 2 -35 7 -43 8 -13 7 -13 -9 -1 -15 12 -17 12 -14 0
2 -8 10 -20 18 -27 13 -11 12 -12 -7 -7 -12 3 -24 2 -27 -3 -3 -6 2 -9 12 -8
13 1 17 -7 17 -34 0 -27 -4 -35 -17 -34 -10 1 -15 -2 -12 -8 3 -5 14 -6 25 -3
14 5 17 3 13 -9 -3 -9 -11 -13 -18 -10 -6 3 -2 -2 9 -11 20 -17 20 -17 -2 -11
-12 4 -24 2 -29 -5 -4 -8 -3 -9 4 -5 7 4 20 2 29 -4 16 -10 16 -11 1 -6 -9 2
-22 -3 -30 -12 -12 -15 -11 -16 4 -4 10 8 19 9 22 3 4 -5 -4 -17 -16 -26 -21
-15 -21 -16 -3 -13 12 2 21 -4 23 -16 3 -13 0 -16 -9 -11 -7 5 -10 4 -5 -3 3
-6 1 -12 -6 -15 -7 -2 -3 -2 9 0 17 2 21 -1 17 -12 -3 -8 -11 -12 -18 -8 -6 3
-8 3 -4 -2 4 -4 0 -14 -10 -22 -15 -13 -15 -13 5 -4 29 15 33 14 27 -4 -4 -8
-11 -12 -17 -8 -5 3 -7 1 -3 -5 3 -6 1 -12 -6 -15 -7 -2 -3 -2 9 0 17 2 21 -1
17 -12 -3 -8 -11 -12 -18 -9 -6 3 -4 0 4 -8 12 -10 14 -28 10 -81 -3 -40 -1
-69 5 -71 6 -3 4 -5 -2 -5 -7 -1 -13 -6 -13 -12 0 -5 4 -8 9 -4 6 3 6 -7 0
-27 -11 -40 -11 -40 -1 -34 4 2 8 -4 9 -14 1 -11 -2 -22 -8 -25 -5 -3 -6 2 -3
12 5 15 4 16 -5 3 -8 -11 -7 -18 2 -25 17 -13 5 -61 -14 -57 -11 3 -11 1 -2
-9 6 -6 9 -19 6 -28 -4 -13 -3 -14 5 -1 6 8 8 19 5 25 -4 5 -3 7 2 3 9 -9 13
-78 4 -78 -4 0 -13 10 -21 21 -14 21 -14 21 -14 1 0 -11 5 -20 10 -19 5 1 10
-9 10 -23 1 -14 5 -32 10 -39 14 -22 13 -60 -1 -65 -19 -8 -16 -36 5 -37 10 0
12 -3 4 -6 -6 -2 -9 -10 -5 -16 3 -6 7 -40 7 -76 1 -36 5 -72 9 -79 5 -6 4
-12 0 -12 -5 0 -15 6 -22 12 -10 11 -11 10 -6 -4 4 -10 13 -18 21 -18 8 0 15
-7 15 -15 2 -24 4 -29 13 -43 4 -8 2 -20 -6 -29 -11 -14 -11 -16 4 -10 11 4
22 -2 32 -17 14 -22 13 -25 -3 -40 -10 -9 -22 -16 -27 -16 -5 1 1 9 14 20 12
10 19 21 15 23 -5 3 -16 -6 -26 -18 -18 -25 -5 -47 16 -26 6 6 14 11 19 11 9
0 68 -57 68 -65 0 -9 27 -35 32 -30 2 2 5 -8 6 -22 1 -15 -1 -23 -5 -19 -5 4
-8 13 -8 19 -1 7 -7 11 -14 9 -7 -1 -10 2 -5 9 5 8 3 9 -6 4 -9 -5 -11 -4 -6
3 4 7 2 12 -4 12 -6 0 -9 4 -5 9 3 5 0 13 -7 17 -7 4 -10 4 -6 -1 4 -4 2 -15
-5 -23 -9 -13 -9 -14 0 -8 12 7 18 -5 14 -27 -1 -5 3 -6 8 -3 5 4 13 0 18 -7
22 -36 93 -56 93 -25 0 5 5 6 11 2 8 -5 6 -10 -7 -18 -11 -6 -20 -17 -22 -24
-1 -8 2 -11 8 -7 5 3 10 2 10 -3 0 -6 8 -13 17 -16 16 -6 16 -6 0 12 -18 20
-23 37 -8 27 5 -3 12 -1 16 4 8 15 32 3 38 -19 3 -13 0 -17 -9 -13 -8 3 -12 9
-9 13 3 5 0 12 -6 16 -8 5 -9 3 -4 -6 6 -9 4 -11 -4 -5 -10 5 -9 2 0 -13 7
-12 17 -18 21 -16 10 6 10 -9 0 -22 -4 -5 1 -1 10 8 14 16 18 16 30 4 8 -7 27
-12 42 -11 21 3 26 0 22 -11 -4 -12 -2 -12 14 -4 14 8 26 7 41 -1 12 -6 19 -7
15 -1 -3 5 1 15 8 21 9 8 17 8 20 2 3 -5 0 -11 -6 -14 -7 -2 -10 -8 -5 -12 4
-5 13 0 20 9 10 13 20 16 35 12 12 -4 20 -11 18 -15 -3 -4 1 -8 9 -8 11 0 12
4 4 13 -7 8 -6 14 3 18 7 3 4 4 -7 1 -33 -8 -48 9 -22 24 20 13 21 13 8 -2
-15 -19 -1 -23 17 -5 9 9 12 9 13 -2 1 -8 1 -18 0 -22 0 -5 4 -8 10 -8 5 0 7
-4 4 -10 -3 -5 0 -7 9 -4 8 3 17 13 20 21 5 13 4 14 -9 3 -8 -7 -15 -8 -15 -4
0 5 9 15 21 22 13 9 18 9 14 2 -4 -7 0 -10 11 -8 15 2 18 -3 16 -22 -2 -19 0
-22 8 -10 7 11 10 11 10 2 0 -7 4 -11 9 -8 5 4 12 0 14 -6 4 -10 6 -10 6 0 1
7 -6 15 -14 18 -17 7 -21 34 -4 34 5 0 7 -4 4 -10 -3 -6 1 -7 9 -4 9 3 13 11
9 18 -4 6 0 6 9 -2 10 -8 19 -9 22 -3 7 11 76 12 76 0 0 -4 -6 -6 -14 -3 -20
8 -29 -12 -16 -33 10 -16 10 -15 5 4 -5 18 -2 20 14 16 12 -3 19 -9 16 -12 -2
-4 1 -8 8 -9 35 -3 52 -11 49 -23 -2 -8 0 -10 5 -6 4 5 8 14 8 20 0 7 8 11 18
11 9 -1 15 2 12 6 -3 5 1 11 7 14 7 3 4 4 -7 3 -11 -1 -25 -8 -31 -15 -8 -11
-12 -11 -23 2 -8 9 -19 16 -25 16 -6 0 -4 -5 4 -11 10 -7 11 -9 2 -7 -8 2 -12
6 -11 8 1 3 -3 16 -10 30 -11 22 -10 23 2 8 8 -10 17 -15 20 -11 4 3 7 1 7 -6
0 -7 5 -9 12 -5 7 4 8 3 4 -4 -4 -7 -3 -12 3 -12 5 0 15 8 20 18 6 10 11 12
11 4 0 -9 5 -10 19 -2 11 5 22 6 25 1 3 -5 17 -8 31 -8 15 0 22 4 18 11 -4 6
1 5 10 -3 17 -13 24 -4 10 15 -5 5 0 1 9 -9 17 -18 38 -19 49 -3 4 5 10 -1 14
-13 3 -11 11 -21 16 -21 6 0 8 -4 5 -8 -2 -4 4 -8 15 -8 19 0 19 1 -1 16 -18
13 -19 18 -7 34 12 16 14 16 14 2 0 -9 -5 -16 -10 -16 -6 0 -8 -2 -5 -5 10
-10 38 7 31 19 -4 6 0 6 9 -2 12 -9 18 -10 23 -2 4 6 13 9 21 6 7 -3 18 3 23
12 6 9 11 12 11 6 0 -6 -3 -14 -7 -18 -4 -4 -8 -15 -8 -24 0 -9 -5 -17 -12
-17 -6 0 -14 -3 -18 -7 -4 -3 1 -5 12 -3 10 2 21 4 26 4 4 1 7 10 7 21 0 11 5
20 11 20 5 0 7 -4 4 -10 -3 -6 1 -7 9 -4 9 3 14 9 12 13 -2 3 7 7 20 7 17 1
24 -3 22 -14 -2 -9 5 -18 15 -20 9 -2 17 1 17 7 0 6 -6 9 -13 7 -6 -1 -9 -1
-4 1 4 3 4 10 1 15 -5 7 -2 8 6 3 10 -6 12 -3 7 11 -7 18 -6 18 6 2 8 -10 17
-15 20 -11 4 3 7 1 7 -6 0 -7 5 -9 12 -5 6 4 8 3 5 -2 -3 -6 3 -16 14 -22 18
-12 19 -11 10 6 -11 20 -6 32 13 32 6 0 4 -5 -4 -11 -12 -9 -11 -10 8 -6 15 4
22 0 22 -10 0 -8 -4 -12 -8 -9 -4 2 -8 -4 -9 -14 -1 -11 2 -22 8 -25 5 -3 6 0
3 8 -8 22 12 30 38 16 13 -6 20 -8 16 -4 -4 5 -3 14 2 20 7 9 6 16 -4 24 -10
8 -16 9 -21 1 -3 -5 1 -10 10 -10 9 0 13 -4 10 -10 -9 -14 -22 -12 -28 4 -3 8
3 22 14 32 11 10 20 14 19 9 -5 -24 2 -27 23 -9 l22 19 -19 -22 c-20 -24 -10
-32 13 -11 11 10 13 10 7 1 -4 -8 -1 -13 7 -13 10 0 14 7 11 23 -5 22 -4 22 5
1 13 -29 24 -35 41 -23 13 7 12 9 -2 9 -10 0 -18 5 -18 10 0 7 8 6 23 -2 30
-17 60 -21 51 -7 -4 8 -1 8 13 1 21 -12 41 -11 61 2 7 4 20 5 29 2 11 -5 14
-2 9 11 -5 16 -4 16 9 -1 10 -14 12 -24 4 -38 -6 -11 -13 -17 -16 -14 -3 3 -1
11 5 19 8 10 5 13 -16 15 -20 2 -23 -1 -14 -10 7 -7 12 -17 12 -23 0 -5 -7 -2
-14 8 -13 17 -14 17 -18 -1 -8 -31 48 -22 78 13 14 17 23 24 19 18 -4 -8 0
-13 10 -13 13 0 14 4 5 23 l-11 22 18 -22 18 -23 32 20 c21 12 35 15 39 9 3
-6 3 -13 0 -16 -3 -4 -6 -1 -6 5 0 7 -11 5 -30 -6 -32 -18 -41 -36 -13 -25 11
4 14 3 9 -5 -4 -7 -2 -12 4 -12 7 0 10 7 6 15 -3 9 0 15 10 15 11 0 14 -6 9
-22 -3 -14 2 -9 13 11 13 23 21 30 27 22 5 -9 14 -6 32 11 16 15 24 18 21 8
-2 -8 3 -14 10 -12 8 1 11 -2 8 -7 -4 -5 0 -11 6 -14 7 -2 9 -8 5 -13 -4 -5
-11 -4 -15 1 -4 6 -17 11 -30 11 -12 1 -20 -1 -17 -5 6 -6 10 -7 36 -10 5 0 8
-5 5 -9 -2 -4 4 -8 14 -8 10 0 17 3 15 7 -3 3 7 11 21 18 29 13 35 14 31 4 -1
-5 3 -9 8 -10 16 -5 12 21 -5 29 -11 5 -9 7 8 7 15 1 21 5 16 13 -4 7 -3 8 4
4 9 -5 9 -13 2 -26 -12 -23 6 -39 23 -20 9 10 9 11 0 6 -7 -4 -13 -3 -13 3 0
5 12 8 27 7 28 -3 62 10 75 29 4 5 6 1 6 -10 -1 -12 -10 -22 -20 -23 -41 -4
-48 -6 -48 -11 0 -3 14 -14 31 -23 16 -10 27 -14 24 -9 -3 5 8 15 25 23 16 7
30 17 30 21 0 5 -4 6 -9 2 -15 -9 -25 15 -12 28 9 9 10 7 5 -8 -4 -11 -4 -17
1 -13 4 4 14 3 22 -3 10 -9 17 -8 28 1 8 7 15 9 15 4 0 -4 6 0 13 11 11 14 16
15 22 5 6 -9 4 -11 -5 -5 -8 5 -11 3 -8 -6 6 -15 11 -15 41 -3 13 5 18 3 15
-7 -1 -8 2 -14 7 -14 6 0 9 11 8 25 -2 22 -1 23 8 7 6 -9 15 -15 20 -12 5 4 6
11 3 17 -4 7 -2 8 5 4 9 -6 9 -11 0 -22 -6 -7 -16 -11 -22 -7 -6 3 -7 1 -3 -6
4 -6 2 -19 -5 -27 -10 -12 -9 -13 5 -8 9 3 16 12 16 20 0 8 4 14 9 14 14 0 31
-26 23 -36 -4 -4 0 -3 9 4 9 6 18 10 21 7 2 -3 5 1 5 9 0 8 -8 13 -19 11 -12
-3 -16 0 -12 7 5 7 2 8 -6 3 -9 -5 -11 -4 -6 4 4 6 12 9 17 6 5 -4 9 0 9 7 0
10 2 10 9 -1 11 -17 51 -22 68 -9 7 5 18 6 25 2 20 -13 41 -14 55 -2 8 7 18 7
26 1 14 -11 27 -11 45 1 7 4 16 5 19 2 4 -3 16 2 27 11 l21 18 -20 -23 -20
-24 40 3 c22 1 46 8 54 13 11 8 13 8 7 -1 -4 -7 -2 -13 3 -13 6 0 11 -6 11
-14 0 -8 6 -16 14 -19 11 -5 11 0 -1 25 -12 23 -13 32 -4 41 9 9 11 8 6 -5 -9
-23 -1 -23 21 -1 16 16 17 16 12 1 -8 -18 16 -45 26 -29 3 5 0 11 -6 14 -10 3
-10 8 1 18 8 8 11 9 7 2 -11 -19 12 -25 24 -6 9 14 10 15 7 2 -3 -9 0 -22 6
-28 8 -8 5 -9 -12 -6 -12 2 -19 0 -16 -6 4 -5 11 -6 17 -3 7 5 9 2 6 -8 -4 -8
-1 -15 7 -15 8 0 11 7 7 15 -3 10 -1 13 6 8 6 -3 14 -1 17 4 5 8 13 6 26 -6
10 -9 19 -14 19 -10 0 4 10 1 23 -5 22 -12 22 -12 2 8 -11 11 -21 16 -23 12
-2 -5 -10 -2 -19 6 -18 18 -33 19 -33 3 0 -7 -5 -5 -11 5 -8 14 -8 22 1 30 8
9 10 8 5 -4 -7 -19 25 -19 49 0 11 9 16 10 16 2 0 -6 -4 -11 -10 -11 -5 0 -10
-5 -10 -11 0 -5 4 -8 9 -5 4 3 17 -1 27 -9 29 -22 40 -18 14 5 -13 11 -19 20
-14 20 6 0 15 -5 21 -11 9 -9 20 -6 43 11 l33 23 -17 -25 c-9 -13 -13 -28 -9
-31 12 -12 21 -7 19 10 0 11 5 17 13 15 8 -2 11 3 8 12 -6 15 17 16 30 1 4 -4
2 -5 -4 -1 -7 4 -13 3 -13 -3 0 -15 18 -23 25 -11 5 8 11 8 20 0 14 -12 52
-10 73 3 6 5 12 5 13 0 0 -4 4 1 9 12 8 19 9 19 9 1 1 -17 2 -17 26 -2 14 9
25 12 25 6 0 -5 -5 -10 -11 -10 -5 0 -7 -5 -4 -10 5 -8 11 -8 19 -1 7 6 16 8
19 4 4 -3 7 0 7 8 0 11 2 11 10 -1 5 -8 10 -11 10 -6 0 5 7 3 15 -4 9 -7 18
-10 22 -6 4 3 -2 13 -13 22 -18 15 -18 15 3 5 12 -6 23 -8 26 -3 3 6 -1 -12
-6 -28 -1 -3 2 -6 7 -7 5 -1 13 -7 17 -15 7 -11 9 -11 9 1 0 11 3 11 15 1 8
-7 15 -9 15 -6 0 4 10 2 23 -4 22 -11 22 -11 2 5 -11 9 -19 21 -17 27 2 8 -1
8 -10 2 -15 -12 -38 -12 -38 -1 0 4 2 6 5 5 2 -2 11 6 20 17 13 17 14 17 9 2
-4 -10 -3 -17 2 -16 23 4 35 -2 28 -13 -4 -7 -3 -9 1 -5 5 4 15 -3 22 -15 l14
-23 -7 25 c-6 24 -6 24 13 7 16 -14 20 -14 20 -2 0 8 -5 11 -10 8 -6 -3 -7 -1
-3 5 4 7 -1 10 -14 7 -11 -2 -18 0 -15 6 4 5 11 6 17 3 7 -5 9 -1 5 9 -3 10
-3 17 2 17 5 0 11 -10 14 -22 5 -18 8 -19 21 -8 9 7 16 9 17 4 0 -5 4 0 9 11
7 16 9 17 9 3 1 -19 21 -18 47 2 16 12 17 12 7 0 -19 -21 -16 -35 4 -19 9 8
14 9 10 3 -4 -7 0 -15 8 -18 12 -4 14 0 9 19 -4 15 -2 25 5 25 6 0 10 -3 10
-7 -4 -22 2 -43 12 -43 5 0 7 6 3 13 -5 7 0 6 11 -3 10 -8 16 -10 13 -5 -4 6
0 19 8 30 8 10 14 14 14 9 0 -6 -5 -15 -12 -22 -9 -9 -9 -12 -1 -12 7 0 14 4
18 10 3 5 13 6 22 3 11 -4 14 -3 9 5 -5 8 -2 10 8 6 19 -7 21 -20 4 -22 -33
-3 -52 -10 -56 -20 -2 -6 -11 -8 -20 -5 -9 3 -14 3 -11 -1 4 -4 16 -8 27 -11
15 -2 19 1 16 10 -4 10 0 13 15 10 12 -2 21 1 21 6 0 6 5 7 10 4 7 -4 6 -14
-1 -28 -9 -20 -9 -20 4 -4 8 9 19 17 26 17 6 0 11 8 10 18 0 10 -3 12 -6 5 -2
-7 -9 -13 -14 -13 -6 0 -7 6 -2 13 4 6 8 15 8 19 0 3 4 10 9 15 5 4 6 3 3 -3
-4 -7 0 -17 7 -24 8 -6 13 -20 11 -31 -2 -10 0 -19 6 -19 9 0 7 24 -5 65 -5
16 -4 15 5 -2 7 -13 19 -23 27 -23 12 0 12 2 1 17 -12 15 -12 16 1 8 26 -16
42 -15 36 2 -5 13 -4 14 9 3 17 -14 15 -20 -7 -24 -7 -1 -22 -7 -33 -14 -18
-10 -18 -11 -2 -12 9 0 17 5 17 11 0 5 5 7 10 4 8 -5 8 -11 0 -20 -8 -10 -8
-15 1 -21 7 -4 9 -3 5 4 -3 6 -2 13 4 17 6 4 8 11 5 16 -4 5 -2 9 4 9 5 0 11
-5 13 -12 3 -7 7 -5 11 6 4 9 3 15 -1 12 -4 -2 -7 6 -7 19 0 13 3 21 8 18 4
-2 7 -11 7 -19 0 -8 5 -14 10 -14 6 0 10 7 10 15 0 8 4 15 10 15 5 0 6 -8 3
-17 -6 -15 -4 -16 9 -6 12 11 19 8 38 -12 13 -13 28 -22 33 -18 6 4 8 0 5 -9
-4 -8 0 -15 7 -15 10 0 11 5 5 17 -5 10 -6 21 -2 25 4 5 2 6 -3 2 -6 -3 -11 3
-12 13 -2 18 -1 18 18 -1 15 -15 24 -18 34 -9 9 8 14 6 19 -6 3 -9 4 -20 0
-25 -3 -5 0 -9 7 -9 7 0 10 11 7 30 -3 20 1 35 11 43 14 10 14 10 3 -5 -8 -10
-9 -19 -3 -22 5 -3 12 0 14 6 4 10 6 10 6 1 1 -7 8 -10 16 -7 8 4 13 9 10 13
-2 4 2 8 10 8 8 0 12 -4 9 -8 -9 -15 32 -29 46 -16 10 9 14 9 17 -1 3 -6 18
-12 34 -12 22 0 27 4 23 18 -5 15 -4 15 6 -1 9 -14 15 -16 26 -6 7 6 11 16 7
22 -3 6 -1 7 6 3 6 -4 9 -11 6 -16 -3 -5 4 -8 15 -7 23 1 25 8 8 27 -11 12
-10 12 3 2 9 -6 19 -8 24 -4 4 4 2 -3 -4 -16 -7 -12 -17 -20 -23 -16 -7 5 -8
2 -3 -5 6 -10 3 -11 -14 -2 -11 7 -21 10 -22 9 0 -2 -3 -14 -5 -28 -4 -23 -4
-23 9 -6 9 12 19 16 27 11 7 -4 16 -2 21 6 6 11 13 8 33 -11 15 -13 26 -19 26
-13 0 6 -6 14 -12 16 -7 3 2 8 20 12 30 7 31 9 15 21 -17 13 -17 14 2 7 18 -6
19 -5 5 13 -14 17 -13 18 1 7 9 -7 19 -10 22 -6 4 3 7 1 7 -5 0 -7 -5 -12 -11
-12 -5 0 -7 -5 -4 -10 5 -8 11 -7 21 1 7 6 11 16 7 22 -3 5 -2 7 4 4 6 -4 9
-23 7 -43 -1 -20 0 -33 3 -30 4 3 7 16 8 29 2 12 8 21 14 19 6 -1 11 5 11 13
0 8 4 15 10 15 5 0 7 -7 4 -15 -5 -11 -2 -13 10 -9 9 3 17 1 17 -5 3 -25 4
-30 9 -35 12 -11 9 39 -3 53 -7 8 3 5 21 -8 18 -12 29 -27 26 -33 -4 -7 -2 -8
4 -4 9 5 9 13 2 26 -7 13 -7 21 2 26 7 4 8 3 4 -5 -4 -6 0 -14 8 -17 9 -3 13
-11 9 -17 -3 -6 -1 -7 5 -3 7 4 12 3 12 -2 0 -5 10 -9 23 -8 13 1 21 -4 19
-12 -1 -6 3 -12 9 -12 6 0 9 7 6 15 -4 8 -2 17 3 20 6 4 10 1 10 -4 0 -6 5
-11 11 -11 5 0 8 4 5 9 -4 5 0 11 6 14 7 2 -1 4 -19 3 -17 0 -29 -4 -27 -8 4
-6 -35 -2 -42 4 -1 2 6 14 17 28 17 21 19 22 10 3 -15 -29 -14 -38 2 -24 8 6
17 8 20 4 4 -3 7 1 7 10 0 9 4 18 9 21 5 4 7 -3 4 -14 -4 -16 -2 -19 11 -14 9
3 13 11 9 18 -4 6 1 5 10 -3 9 -7 14 -17 11 -22 -3 -5 2 -9 11 -9 9 0 13 -5
10 -10 -5 -8 -11 -7 -21 1 -8 7 -14 7 -14 1 0 -16 33 -24 41 -10 5 7 2 22 -6
35 -11 16 -12 24 -3 29 6 4 8 3 5 -3 -4 -6 2 -18 13 -28 19 -17 21 -17 38 -2
18 16 32 14 32 -6 0 -5 -7 -7 -15 -4 -19 8 -30 -12 -16 -26 9 -9 11 -8 6 3 -4
11 1 16 15 16 15 0 19 -5 15 -21 -5 -16 -4 -17 4 -4 11 16 10 37 -2 56 -4 6
-2 15 4 19 7 4 9 3 6 -3 -4 -6 1 -17 10 -24 15 -12 16 -12 10 5 -6 16 -5 17 8
6 21 -17 19 -30 -4 -25 -14 3 -18 -1 -14 -12 4 -11 8 -11 13 -3 5 9 9 9 14 1
4 -6 4 -17 0 -23 -5 -9 -2 -8 10 1 13 11 14 16 4 22 -7 5 1 7 20 7 19 -1 37
-8 42 -17 6 -10 10 -11 10 -3 0 6 4 12 10 12 5 0 7 -8 4 -17 -5 -17 -5 -17 6
0 6 9 16 14 22 11 7 -4 8 -2 4 4 -4 7 -2 12 3 12 6 0 11 -4 11 -10 0 -5 5 -10
11 -10 5 0 7 5 4 10 -3 6 0 10 8 10 8 0 18 -7 21 -16 4 -9 9 -14 13 -11 3 4
13 1 22 -6 14 -10 14 -10 4 4 -7 9 -10 19 -6 22 5 6 -9 11 -28 9 -3 0 -10 7
-16 17 -9 14 -8 18 3 18 7 0 11 -4 8 -9 -3 -4 -1 -8 5 -8 5 0 11 3 14 8 2 4 2
1 1 -5 -2 -7 1 -13 6 -13 9 0 14 15 11 33 -1 5 3 6 9 2 7 -4 7 -12 0 -25 -8
-14 -5 -19 13 -25 33 -11 97 -13 97 -3 0 5 -10 6 -22 3 -16 -4 -19 -3 -9 3 9
7 10 12 2 16 -6 4 -11 3 -11 -3 0 -12 -44 -8 -46 5 -1 5 3 8 9 6 5 -2 14 3 18
10 7 11 9 11 9 0 0 -7 4 -11 9 -7 5 3 12 1 16 -5 3 -5 11 -10 17 -10 6 0 5 7
-3 18 -11 14 -11 15 1 4 20 -17 35 -15 20 3 -11 13 -10 14 4 9 19 -7 20 -16 5
-31 -8 -8 -8 -13 0 -17 6 -4 11 -4 11 0 0 4 7 -1 16 -12 8 -10 13 -13 9 -6
-12 24 -15 61 -5 67 5 3 7 0 5 -7 -3 -8 1 -22 8 -32 11 -15 16 -16 22 -6 6 9
4 11 -5 5 -10 -6 -12 -4 -7 9 5 12 3 15 -6 10 -9 -6 -9 -5 0 8 7 8 10 18 6 21
-3 4 -1 7 5 7 6 0 14 -4 17 -10 3 -5 1 -10 -5 -10 -6 0 -9 -4 -6 -9 11 -17 54
-9 60 12 4 18 7 19 22 6 12 -9 15 -10 10 -1 -4 7 -1 12 9 12 12 0 14 7 10 32
-3 21 -2 28 4 19 10 -15 20 -3 16 21 -2 11 2 15 13 11 11 -5 13 -3 7 7 -5 8 5
4 22 -8 39 -28 54 -29 19 -1 -14 11 -26 26 -25 32 0 8 2 8 6 0 8 -21 26 -15
63 20 20 17 31 29 26 24 -22 -16 -29 -5 -8 12 14 12 18 21 10 23 -8 3 -5 11 8
24 17 17 18 23 7 32 -9 9 -10 18 -4 30 15 28 24 55 25 79 1 12 4 25 9 29 12
12 8 26 -5 18 -8 -5 -7 0 2 11 11 14 12 19 2 22 -6 3 -9 9 -6 14 3 6 12 2 21
-8 13 -16 13 -16 2 7 -7 14 -17 28 -23 33 -16 10 26 3 44 -8 13 -8 13 -7 1 8
-7 9 -17 14 -22 11 -14 -8 -28 39 -17 59 6 11 5 17 -3 17 -7 0 -8 5 -3 13 5 6
9 25 8 42 -1 16 5 36 13 44 13 13 12 16 -7 31 -19 14 -20 18 -6 29 17 14 16
41 -2 63 -6 8 -9 18 -5 21 3 4 11 0 17 -9 10 -13 12 -13 12 5 0 11 -3 18 -6
16 -3 -1 -11 3 -18 11 -7 8 -8 14 -3 14 5 0 9 8 9 17 0 10 1 25 4 33 3 8 3 12
1 8 -9 -15 -19 -8 -19 12 0 13 5 19 13 16 10 -4 9 3 -3 27 -17 32 -17 32 4 14
13 -12 22 -15 27 -7 3 6 1 9 -6 8 -20 -5 -20 60 0 72 9 5 11 10 6 10 -6 0 -16
-5 -22 -11 -7 -7 -12 -6 -17 6 -3 9 -2 14 3 11 5 -3 12 1 15 10 3 8 10 13 15
9 5 -3 12 -1 15 4 7 11 -13 9 -33 -3 -10 -7 -12 -4 -6 13 3 11 2 21 -3 21 -11
0 -9 37 3 47 4 5 5 2 1 -4 -5 -9 -2 -11 10 -6 14 5 13 8 -6 18 -17 9 -19 14
-9 18 9 3 10 8 4 14 -15 12 -14 73 2 73 15 0 13 -21 -2 -32 -6 -5 -5 -8 3 -8
7 0 11 -4 7 -9 -3 -5 -2 -12 3 -15 5 -3 8 18 7 45 -1 30 -7 54 -15 59 -18 11
-20 48 -3 54 7 3 13 11 13 18 0 9 -3 8 -10 -2 -11 -17 -12 -13 -14 45 0 22 3
43 8 47 6 4 4 13 -3 22 -15 18 -1 22 16 5 8 -8 13 -7 18 2 5 7 4 10 -2 6 -5
-3 -17 3 -26 13 -15 18 -9 38 7 23 10 -11 37 -12 30 -2 -3 5 -10 7 -15 3 -6
-3 -13 3 -16 15 -3 12 -10 18 -17 14 -7 -4 -6 -1 1 9 7 8 10 18 6 22 -11 11
-10 40 2 49 7 5 7 10 0 15 -5 4 -10 27 -10 52 0 25 5 48 10 53 7 5 7 10 0 15
-12 9 -13 38 -1 49 5 4 6 3 2 -4 -5 -9 -2 -11 10 -6 15 5 15 7 -2 17 -19 11
-29 66 -13 66 5 0 9 5 9 11 0 5 -4 8 -8 5 -5 -3 -9 1 -9 9 0 18 9 19 24 4 8
-8 13 -8 18 0 3 7 1 10 -6 9 -7 -2 -14 3 -15 10 -1 6 -2 17 -3 23 0 5 -5 8 -9
5 -5 -3 -9 1 -9 9 0 16 9 19 21 8 10 -11 37 -12 30 -2 -3 5 -10 7 -15 4 -5 -4
-12 1 -15 9 -3 9 -9 14 -13 12 -12 -8 -5 42 9 59 10 13 15 13 21 3 6 -9 9 -9
9 -1 0 16 -17 26 -25 13 -3 -5 -12 -10 -18 -10 -7 1 -1 10 13 22 22 18 23 20
4 14 -14 -4 -21 -2 -21 8 0 9 4 13 9 10 10 -6 11 10 1 20 -14 14 -9 71 7 83
11 9 17 9 22 0 6 -9 8 -9 8 0 0 16 -17 26 -25 13 -4 -6 -11 -8 -16 -4 -6 3 -3
12 8 21 10 8 13 12 6 9 -6 -4 -14 -2 -17 3 -4 5 3 12 14 16 11 3 20 11 20 18
0 8 -3 8 -12 -1 -19 -19 -24 -14 -24 28 0 43 4 47 25 27 11 -10 11 -8 0 10 -7
12 -16 20 -19 18 -3 -2 -6 12 -6 31 0 19 4 34 8 34 4 0 8 5 8 11 0 5 -4 8 -8
5 -5 -3 -9 1 -9 9 0 18 9 19 27 2 7 -6 4 1 -8 17 -12 16 -20 32 -17 35 4 3 11
-1 16 -9 9 -13 10 -12 6 2 -3 9 -3 19 1 21 4 2 2 2 -5 1 -7 -2 -15 1 -18 6 -4
6 -1 10 4 10 6 0 11 5 11 11 0 5 -3 8 -8 5 -4 -2 -7 25 -7 60 0 43 4 64 12 64
6 0 14 4 17 9 4 5 -4 7 -16 4 -19 -4 -20 -3 -8 6 10 7 11 11 3 11 -19 0 -11
23 12 38 20 13 20 13 0 7 -19 -5 -21 0 -21 45 0 27 4 50 8 50 4 0 8 -8 8 -17
0 -9 3 -14 6 -10 8 8 -6 48 -15 43 -4 -3 -8 1 -8 9 0 8 4 15 9 15 4 0 8 5 8
11 0 5 -4 8 -8 5 -5 -3 -9 1 -9 9 0 18 9 19 24 4 8 -8 13 -7 18 2 5 8 4 10 -4
5 -6 -4 -14 0 -17 8 -3 9 -9 14 -13 11 -4 -2 -7 12 -6 31 0 19 7 39 15 44 12
8 11 10 -5 10 -17 0 -17 2 -5 10 10 6 11 10 3 10 -7 0 -13 5 -13 11 0 5 5 7
10 4 6 -3 10 -1 10 4 0 6 -3 11 -8 11 -4 0 -7 33 -7 74 0 41 3 72 7 70 5 -3 8
0 8 5 0 6 -4 11 -8 11 -4 0 -8 11 -8 25 0 17 4 24 14 20 8 -3 10 0 6 7 -4 6 1
17 11 24 16 12 16 13 -3 11 -11 0 -19 -4 -16 -8 2 -4 1 -10 -4 -13 -4 -2 -8 6
-8 20 0 19 4 23 21 18 16 -4 17 -3 5 5 -15 10 -24 55 -10 46 4 -3 11 2 14 11
4 9 13 14 22 10 9 -3 12 -2 9 4 -4 6 -14 9 -23 8 -14 -2 -17 6 -18 43 0 25 -3
53 -7 62 -3 9 -2 17 3 17 11 0 8 35 -3 46 -4 4 1 12 10 19 17 13 27 59 11 49
-5 -4 -7 -12 -4 -20 3 -8 2 -14 -3 -14 -17 0 -19 39 -3 45 11 4 13 9 6 13 -19
12 -21 37 -5 49 11 8 12 12 4 13 -7 0 -13 7 -13 16 0 8 5 12 10 9 6 -3 10 -1
10 4 0 6 -4 11 -8 11 -5 0 -9 34 -9 75 -1 41 2 73 6 71 4 -3 13 0 21 5 12 8
11 9 -4 7 -16 -2 -20 4 -24 36 -2 23 0 36 6 32 5 -3 16 2 23 12 13 15 12 16
-3 4 -10 -8 -19 -9 -22 -3 -4 5 -2 12 4 16 5 3 10 12 10 18 0 7 -4 6 -10 -3
-7 -11 -10 -2 -10 32 0 26 4 50 10 53 6 3 10 12 9 18 0 9 -2 9 -6 0 -8 -21
-20 -15 -18 10 1 12 0 27 -4 32 -6 11 -12 32 -13 53 -1 6 -4 12 -8 12 -4 0
-12 12 -19 27 -10 21 -9 28 1 35 10 7 9 8 -2 6 -17 -3 -116 91 -112 105 1 5
-2 6 -7 3 -5 -4 -17 1 -25 10 -9 8 -16 12 -16 8 0 -3 -7 0 -16 7 -15 12 -63
32 -104 44 -46 13 -137 37 -150 40 -8 2 -46 13 -85 25 -38 12 -78 23 -87 25
-9 2 -26 9 -37 15 -12 6 -21 9 -21 6 0 -3 -13 0 -30 5 -16 6 -28 14 -26 18 2
3 -8 6 -22 7 -42 0 -102 15 -97 24 2 4 -7 6 -22 4 -15 -1 -39 4 -55 12 -15 8
-30 14 -33 13 -16 -4 -75 13 -71 20 3 5 -5 7 -17 6 -12 -1 -49 6 -82 16 -33
11 -78 24 -100 30 -22 6 -60 18 -85 26 -25 8 -58 17 -75 20 -16 3 -37 8 -45
13 -8 4 -40 13 -70 20 -30 7 -59 15 -65 19 -10 6 -14 7 -50 13 -11 2 -26 7
-32 11 -7 5 -13 6 -13 2 0 -3 -16 1 -35 9 -20 9 -38 15 -40 16 -3 0 -7 1 -10
1 -3 1 -9 3 -15 4 -5 1 -11 3 -12 5 -2 1 -12 3 -23 5 -60 11 -214 59 -210 66
3 4 -4 5 -15 2 -11 -3 -20 -1 -20 3 0 5 -14 10 -31 11 -17 1 -38 8 -47 15 -9
7 -13 8 -9 2 5 -9 -76 11 -133 33 -22 9 -21 9 -63 17 -20 5 -40 12 -42 17 -3
4 -12 6 -21 2 -8 -3 -23 2 -33 11 -10 9 -20 13 -24 10 -5 -5 -111 23 -167 44
-8 3 -17 6 -20 6 -20 5 -108 29 -120 33 -8 4 -21 7 -29 9 -8 1 -26 6 -40 10
-14 4 -29 8 -33 9 -5 2 -10 4 -13 5 -3 1 -9 4 -15 5 -5 1 -11 3 -12 4 -2 2
-14 4 -28 7 -14 2 -32 7 -40 11 -8 3 -24 8 -35 10 -11 2 -56 14 -100 28 -66
20 -135 40 -177 51 -5 1 -10 3 -13 4 -6 3 -6 3 -55 14 -19 5 -39 12 -45 16 -5
5 -13 8 -18 8 -26 1 -125 28 -143 39 -11 7 -23 11 -26 8 -2 -3 -31 3 -64 14
-56 18 -104 31 -132 37 -8 1 -21 6 -30 10 -9 4 -26 9 -37 11 -10 2 -23 9 -27
16 -5 7 -8 8 -8 1 0 -7 -27 -2 -72 12 -40 13 -104 32 -143 43 -38 11 -98 28
-132 37 -34 10 -60 21 -58 25 3 3 -6 5 -19 4 -13 -2 -68 11 -122 27 -91 28
-143 42 -185 52 -9 3 -49 14 -90 26 -41 12 -78 23 -84 24 -5 1 -14 4 -20 7
-13 8 -68 23 -77 21 -4 -1 -20 3 -35 9 -15 6 -29 10 -30 10 -2 0 -33 9 -70 21
-38 11 -77 21 -88 23 -11 2 -22 4 -25 5 -3 1 -8 2 -12 1 -5 0 -8 4 -8 9 0 6
-3 9 -7 9 -29 -5 -73 3 -68 11 7 11 2 13 -9 3z m-454 -652 c3 -20 0 -27 -8
-24 -12 4 -14 53 -3 53 4 0 9 -13 11 -29z m53 1 c-3 -3 -11 0 -18 7 -9 10 -8
11 6 5 10 -3 15 -9 12 -12z m80 -32 c3 5 11 10 18 10 6 0 2 -6 -8 -14 -13 -9
-25 -11 -36 -5 -9 4 -20 5 -24 1 -5 -4 -5 -1 -1 6 5 9 13 9 26 2 13 -7 21 -7
25 0z m38 -20 c-10 -9 -22 -15 -27 -12 -5 3 1 10 13 16 12 7 18 16 14 21 -4 4
-2 5 5 1 11 -6 10 -12 -5 -26z m156 -36 c-14 -17 2 -19 19 -2 7 7 12 9 12 4 0
-15 -29 -36 -35 -26 -4 6 -12 7 -18 3 -7 -3 -4 3 6 14 9 11 14 23 10 28 -5 4
-2 5 5 1 10 -6 10 -11 1 -22z m121 -18 c-7 -7 -13 -7 -20 0 -6 6 -3 10 10 10
13 0 16 -4 10 -10z m120 -41 c-15 -18 1 -20 18 -3 9 9 12 9 12 0 0 -7 -5 -12
-11 -12 -5 0 -7 -5 -3 -11 4 -8 0 -8 -15 0 -24 13 -27 27 -8 34 20 8 20 8 7
-8z m225 -54 c-3 -6 3 -14 12 -20 10 -6 13 -11 7 -11 -15 0 -36 25 -27 33 10
10 15 8 8 -2z m124 -78 c-6 -6 -17 -9 -24 -7 -11 4 -10 9 3 23 19 19 38 5 21
-16z m37 22 c-3 -23 -12 -26 -13 -5 -1 11 2 20 7 20 4 0 7 -7 6 -15z m257 -90
c-2 -7 3 -12 12 -12 9 0 14 6 11 14 -4 11 -1 11 14 3 11 -6 26 -8 32 -4 7 4 8
3 4 -4 -4 -7 -2 -12 3 -12 6 0 11 6 11 13 0 6 5 4 11 -6 6 -9 14 -15 19 -12 9
6 23 -25 15 -33 -3 -3 -5 1 -5 9 0 11 -2 11 -10 -1 -8 -13 -10 -12 -10 4 0 15
-3 16 -15 6 -12 -10 -16 -9 -21 4 -8 20 -24 21 -24 1 0 -20 -16 -19 -24 1 -3
8 -10 12 -16 9 -6 -3 -13 1 -16 9 -3 9 -10 13 -15 10 -5 -3 -9 -1 -9 5 0 5 9
9 19 8 10 0 17 -6 14 -12z m797 -205 c0 -5 -5 -10 -11 -10 -5 0 -7 5 -4 10 3
6 8 10 11 10 2 0 4 -4 4 -10z m121 -34 c-7 -9 -8 -17 -2 -20 5 -3 12 -1 14 4
3 6 4 5 3 -2 -2 -7 -11 -13 -22 -13 -10 0 -23 -3 -29 -7 -6 -3 -11 5 -11 18
-1 13 2 24 8 24 5 0 6 -4 3 -10 -10 -16 11 -12 25 5 7 8 15 15 17 15 3 0 0 -6
-6 -14z m89 -37 c0 -6 -4 -7 -10 -4 -5 3 -10 11 -10 16 0 6 5 7 10 4 6 -3 10
-11 10 -16z m85 -17 c-3 -3 -11 0 -18 7 -9 10 -8 11 6 5 10 -3 15 -9 12 -12z
m228 -63 c-6 -6 -17 -11 -24 -12 -8 -2 -20 -6 -26 -10 -9 -6 -11 -3 -7 8 4 9
12 14 19 11 6 -2 18 0 26 5 19 12 25 11 12 -2z m-103 -3 c0 -3 -4 -8 -10 -11
-5 -3 -10 -1 -10 4 0 6 5 11 10 11 6 0 10 -2 10 -4z m140 -6 c0 -5 -5 -10 -11
-10 -5 0 -7 5 -4 10 3 6 8 10 11 10 2 0 4 -4 4 -10z m121 -34 c-7 -9 -8 -17
-2 -20 5 -3 12 0 14 6 4 8 6 9 6 2 1 -18 -26 -37 -34 -24 -5 8 -11 8 -20 0
-10 -8 -12 -5 -12 15 0 14 4 25 9 25 5 0 6 -4 3 -10 -10 -16 11 -12 25 5 7 8
15 15 17 15 3 0 0 -6 -6 -14z m49 -51 c0 -5 -5 -3 -10 5 -5 8 -10 20 -10 25 0
6 5 3 10 -5 5 -8 10 -19 10 -25z m23 19 c-2 -6 0 -15 6 -19 6 -3 11 2 12 12 0
12 4 9 11 -10 5 -15 14 -24 19 -21 6 4 6 10 0 18 -8 9 -7 13 4 13 7 0 14 -3
13 -6 -2 -20 4 -22 17 -5 15 18 15 18 8 0 -5 -15 -3 -17 8 -11 12 8 12 6 0 -9
-10 -11 -17 -14 -24 -7 -7 7 -15 7 -24 -1 -10 -8 -18 -6 -34 8 -30 27 -41 51
-24 51 7 0 11 -6 8 -13z m552 -144 c3 -5 1 -10 -4 -10 -6 0 -11 5 -11 10 0 6
2 10 4 10 3 0 8 -4 11 -10z m48 -17 c-7 -2 -19 -2 -25 0 -7 3 -2 5 12 5 14 0
19 -2 13 -5z m353 -95 c4 -7 3 -8 -4 -4 -6 3 -16 -3 -22 -14 -6 -11 -16 -18
-22 -14 -7 4 -2 14 13 25 29 22 26 22 35 7z m63 -43 c11 3 26 -4 41 -20 20
-22 16 -38 -4 -17 -4 4 -11 7 -14 7 -4 1 -18 7 -32 15 -14 7 -27 13 -30 13 -3
-1 -4 3 -2 9 1 5 -6 7 -18 3 -12 -4 -20 -2 -20 5 0 6 4 9 9 5 5 -3 13 0 16 6
5 6 12 3 22 -11 9 -13 21 -19 32 -15z m-4 17 c-3 -3 -11 0 -18 7 -9 10 -8 11
6 5 10 -3 15 -9 12 -12z m298 -92 c-3 -12 -8 -19 -11 -16 -5 6 5 36 12 36 2 0
2 -9 -1 -20z m27 0 c0 -5 -5 -10 -11 -10 -5 0 -7 5 -4 10 3 6 8 10 11 10 2 0
4 -4 4 -10z m38 -15 c-3 -3 -9 2 -12 12 -6 14 -5 15 5 6 7 -7 10 -15 7 -18z
m213 -53 c-7 -2 -18 1 -23 6 -8 8 -4 9 13 5 13 -4 18 -8 10 -11z m-8 -16 c21
3 23 -12 2 -20 -8 -3 -21 4 -30 17 -9 13 -15 16 -15 8 0 -8 -3 -12 -6 -8 -3 3
-3 11 2 18 5 9 10 8 18 -3 6 -8 19 -14 29 -12z m-63 4 c0 -5 -4 -10 -10 -10
-5 0 -10 5 -10 10 0 6 5 10 10 10 6 0 10 -4 10 -10z m222 -34 c7 4 8 2 4 -4
-4 -7 -2 -12 3 -12 6 0 11 -4 11 -8 0 -5 -7 -9 -15 -9 -8 0 -12 4 -9 8 2 4 0
10 -6 14 -5 3 -10 12 -9 18 0 9 2 8 6 -1 2 -6 10 -9 15 -6z m43 -14 c-3 -3
-11 0 -18 7 -9 10 -8 11 6 5 10 -3 15 -9 12 -12z m172 -59 c-4 -3 -2 -12 4
-19 7 -9 6 -12 -8 -10 -10 2 -17 6 -15 9 1 4 2 12 2 17 0 6 5 10 12 10 6 0 8
-3 5 -7z m242 -79 c-6 -7 -8 -18 -4 -24 3 -5 2 -10 -3 -10 -13 0 -24 44 -12
48 6 2 7 9 3 15 -4 7 1 6 10 -2 13 -10 14 -17 6 -27z m101 -8 c0 -2 -7 -7 -16
-10 -8 -3 -12 -2 -9 4 6 10 25 14 25 6z m-5280 -846 c0 -5 -5 -10 -11 -10 -5
0 -7 5 -4 10 3 6 8 10 11 10 2 0 4 -4 4 -10z m5945 -1750 c3 -5 2 -10 -4 -10
-5 0 -13 5 -16 10 -3 6 -2 10 4 10 5 0 13 -4 16 -10z m-7 -295 c-3 -3 -9 2
-12 12 -6 14 -5 15 5 6 7 -7 10 -15 7 -18z m-1 -247 c2 -17 0 -19 -7 -8 -5 8
-6 18 -4 22 8 12 10 10 11 -14z m8 -78 c-3 -5 -11 -10 -16 -10 -6 0 -7 5 -4
10 3 6 11 10 16 10 6 0 7 -4 4 -10z m-5940 -20 c3 -5 1 -10 -4 -10 -6 0 -11 5
-11 10 0 6 2 10 4 10 3 0 8 -4 11 -10z m0 -120 c3 -5 1 -10 -4 -10 -6 0 -11 5
-11 10 0 6 2 10 4 10 3 0 8 -4 11 -10z m5883 -320 c-7 -11 -16 -20 -20 -20 -5
0 -3 9 4 20 7 11 16 20 20 20 5 0 3 -9 -4 -20z m-21 -48 c-10 -10 -15 -21 -12
-24 3 -3 -3 -13 -14 -22 -13 -12 -21 -14 -26 -6 -3 6 -1 9 6 8 7 -2 15 6 17
16 5 22 23 45 36 46 5 0 2 -8 -7 -18z m-5664 -137 c-3 -10 1 -15 13 -15 16 0
17 -2 4 -10 -10 -6 -16 -6 -18 0 -2 6 -8 7 -14 4 -6 -4 -6 1 1 13 6 11 7 24 3
28 -4 5 -2 5 5 1 7 -4 10 -13 6 -21z m5512 -6 c-4 -5 0 -9 7 -9 10 0 9 -3 -2
-9 -8 -6 -17 -8 -21 -5 -4 2 -10 0 -14 -6 -4 -6 -11 -7 -17 -4 -7 5 -9 2 -6
-8 4 -8 1 -15 -5 -15 -7 0 -13 11 -13 24 -2 17 2 23 12 19 8 -3 14 0 15 7 0 9
2 8 6 -1 4 -10 8 -10 19 -1 8 6 11 16 7 22 -3 6 -1 7 6 3 6 -4 9 -12 6 -17z
m-5371 -63 c-1 -9 4 -16 12 -16 7 0 12 6 10 13 -1 6 -1 8 2 3 2 -4 9 -2 14 5
6 10 7 6 2 -11 -6 -22 -5 -23 9 -12 11 9 17 10 22 2 5 -8 13 -6 25 5 11 10 20
12 24 7 7 -12 23 -10 56 7 24 12 24 11 5 -4 -11 -9 -19 -22 -17 -28 3 -9 0 -9
-9 0 -10 10 -17 9 -31 -4 -16 -14 -21 -15 -27 -4 -6 9 -10 10 -15 2 -4 -6 -13
-8 -19 -4 -7 4 -21 8 -32 8 -33 1 -65 24 -58 41 7 19 28 12 27 -10z m4091 3
c-4 -5 -12 -9 -18 -8 -9 0 -8 2 1 6 6 2 9 10 6 15 -4 7 -2 8 5 4 6 -4 9 -12 6
-17z m103 -4 c-3 -3 -9 2 -12 12 -6 14 -5 15 5 6 7 -7 10 -15 7 -18z m119 -4
c1 -11 -4 -22 -12 -25 -21 -8 -31 15 -11 26 9 5 13 15 10 21 -4 7 -3 9 1 4 5
-4 10 -16 12 -26z m263 8 c0 -5 -4 -9 -8 -9 -5 0 -9 7 -9 15 0 8 4 12 9 9 4
-3 8 -9 8 -15z m392 -1 c-5 -21 -4 -22 11 -9 12 9 17 10 17 2 0 -7 5 -9 12 -5
7 4 8 3 4 -5 -4 -6 -12 -9 -17 -5 -5 3 -15 2 -22 -3 -18 -12 -50 -10 -55 5 -2
6 2 12 10 12 10 0 9 3 -2 11 -13 9 -13 10 0 6 8 -2 14 -10 13 -16 -5 -20 15
-12 20 9 3 11 7 20 10 20 3 0 3 -10 -1 -22z m-4682 7 c0 -2 -10 -9 -22 -15
-22 -11 -22 -10 -4 4 21 17 26 19 26 11z m64 -3 c2 -4 -5 -9 -17 -9 -17 -2
-19 0 -7 7 18 12 18 12 24 2z m201 -2 c-3 -5 -12 -10 -18 -10 -7 0 -6 4 3 10
19 12 23 12 15 0z m170 0 c3 -5 1 -10 -4 -10 -6 0 -11 5 -11 10 0 6 2 10 4 10
3 0 8 -4 11 -10z m42 -12 c-3 -8 -6 -5 -6 6 -1 11 2 17 5 13 3 -3 4 -12 1 -19z
m298 4 c-3 -3 -11 0 -18 7 -9 10 -8 11 6 5 10 -3 15 -9 12 -12z m250 0 c-3 -3
-11 0 -18 7 -9 10 -8 11 6 5 10 -3 15 -9 12 -12z m65 8 c0 -5 -5 -10 -11 -10
-5 0 -7 5 -4 10 3 6 8 10 11 10 2 0 4 -4 4 -10z m353 -5 c-3 -9 -8 -14 -10
-11 -3 3 -2 9 2 15 9 16 15 13 8 -4z m122 5 c3 -5 1 -10 -4 -10 -6 0 -11 5
-11 10 0 6 2 10 4 10 3 0 8 -4 11 -10z m140 0 c3 -5 1 -10 -4 -10 -6 0 -11 5
-11 10 0 6 2 10 4 10 3 0 8 -4 11 -10z m265 0 c0 -5 -5 -10 -11 -10 -5 0 -7 5
-4 10 3 6 8 10 11 10 2 0 4 -4 4 -10z m80 -5 c0 -2 -9 -3 -19 -2 -11 0 -18 5
-15 9 4 6 34 0 34 -7z m73 3 c-2 -5 -10 -8 -18 -8 -8 0 -16 3 -18 8 -3 4 5 7
18 7 13 0 21 -3 18 -7z m117 -2 c-7 -7 -13 -7 -20 0 -6 6 -3 10 10 10 13 0 16
-4 10 -10z m435 4 c-3 -5 -1 -10 6 -10 7 0 10 -3 6 -6 -9 -9 -28 6 -22 17 4 5
8 9 11 9 3 0 2 -4 -1 -10z m49 -2 c-3 -4 -9 -8 -15 -8 -5 0 -9 4 -9 8 0 5 7 9
15 9 8 0 12 -4 9 -9z m286 2 c0 -5 -5 -10 -11 -10 -5 0 -7 5 -4 10 3 6 8 10
11 10 2 0 4 -4 4 -10z m577 4 c-3 -4 -2 -16 4 -28 10 -20 9 -20 -5 -2 -14 17
-13 36 1 36 4 0 3 -3 0 -6z m58 -12 c-3 -3 -11 0 -18 7 -9 10 -8 11 6 5 10 -3
15 -9 12 -12z m825 4 c-7 -7 -13 -7 -20 0 -6 6 -3 10 10 10 13 0 16 -4 10 -10z
m120 -1 c0 -8 -2 -15 -4 -15 -2 0 -6 7 -10 15 -3 8 -1 15 4 15 6 0 10 -7 10
-15z m-3123 -10 c0 -8 -6 -16 -14 -19 -11 -4 -11 -1 -3 14 13 24 17 25 17 5z
m2398 -3 c-3 -3 -11 0 -18 7 -9 10 -8 11 6 5 10 -3 15 -9 12 -12z m748 3 c-3
-9 -8 -14 -10 -11 -3 3 -2 9 2 15 9 16 15 13 8 -4z m-2978 -31 c-9 -7 -24 -10
-32 -7 -19 8 2 22 29 20 18 -1 18 -2 3 -13z"/>
<path d="M4635 4900 c3 -5 8 -10 11 -10 2 0 4 5 4 10 0 6 -5 10 -11 10 -5 0
-7 -4 -4 -10z"/>
<path d="M955 640 c-3 -5 -1 -10 4 -10 6 0 11 5 11 10 0 6 -2 10 -4 10 -3 0
-8 -4 -11 -10z"/>
<path d="M1075 620 c-3 -5 1 -10 10 -10 9 0 13 5 10 10 -3 6 -8 10 -10 10 -2
0 -7 -4 -10 -10z"/>
<path d="M790 6376 c0 -2 8 -10 18 -17 15 -13 16 -12 3 4 -13 16 -21 21 -21
13z"/>
<path d="M775 6280 c-3 -5 -1 -10 4 -10 6 0 11 5 11 10 0 6 -2 10 -4 10 -3 0
-8 -4 -11 -10z"/>
<path d="M726 6178 c3 -5 10 -6 15 -3 13 9 11 12 -6 12 -8 0 -12 -4 -9 -9z"/>
<path d="M734 6018 c-4 -6 -3 -8 3 -5 5 4 20 -3 31 -14 12 -11 22 -16 22 -11
0 17 -48 43 -56 30z"/>
<path d="M895 5950 c-16 -17 -16 -20 -3 -15 9 4 19 13 22 21 7 19 2 18 -19 -6z"/>
<path d="M3786 5958 c3 -5 10 -6 15 -3 13 9 11 12 -6 12 -8 0 -12 -4 -9 -9z"/>
<path d="M815 5940 c3 -5 8 -10 11 -10 2 0 4 5 4 10 0 6 -5 10 -11 10 -5 0 -7
-4 -4 -10z"/>
<path d="M939 5928 c-6 -21 -5 -37 2 -32 5 3 6 10 3 16 -5 8 -1 9 10 5 10 -4
15 -3 11 3 -5 9 -24 14 -26 8z"/>
<path d="M1020 5886 c4 -4 16 -4 26 2 16 9 14 10 -8 9 -15 -1 -23 -6 -18 -11z"/>
<path d="M1070 5881 c0 -6 4 -13 10 -16 6 -3 7 1 4 9 -7 18 -14 21 -14 7z"/>
<path d="M1115 5860 c-3 -5 -1 -10 4 -10 6 0 11 5 11 10 0 6 -2 10 -4 10 -3 0
-8 -4 -11 -10z"/>
<path d="M1285 5851 c-8 -14 10 -22 32 -14 15 6 16 4 6 -8 -8 -10 -9 -19 -2
-29 8 -12 9 -11 7 4 -2 10 3 21 11 24 9 3 11 0 6 -9 -5 -8 -5 -11 0 -7 4 4 16
3 26 -3 33 -17 20 -3 -21 25 -22 14 -40 22 -40 16 0 -5 -5 -10 -11 -10 -5 0
-7 5 -4 10 3 6 4 10 1 10 -3 0 -7 -4 -11 -9z"/>
<path d="M1390 5776 c7 -7 13 -7 20 0 6 6 3 10 -10 10 -13 0 -16 -4 -10 -10z"/>
<path d="M1630 5731 c0 -6 4 -13 10 -16 6 -3 7 1 4 9 -7 18 -14 21 -14 7z"/>
<path d="M1825 5700 c-10 -11 -15 -23 -12 -27 4 -3 7 -2 7 4 0 6 10 13 23 16
22 6 22 6 2 -9 l-20 -16 20 4 c11 2 19 -2 18 -8 -3 -16 25 -13 32 4 3 8 3 17
0 20 -3 3 -5 0 -5 -6 0 -7 -5 -12 -11 -12 -5 0 -8 4 -5 9 3 4 -3 16 -13 25
-17 15 -19 15 -36 -4z"/>
<path d="M1910 5681 c0 -6 5 -11 11 -11 5 0 7 -6 3 -12 -5 -8 0 -7 11 2 17 14
18 13 12 -2 -4 -13 -2 -15 11 -11 15 6 16 5 2 -13 -14 -18 -14 -18 6 -1 11 9
26 17 33 17 7 0 10 4 7 9 -4 5 -14 8 -24 6 -9 -1 -23 2 -29 8 -7 5 -13 6 -13
2 0 -4 -7 -2 -15 5 -10 9 -15 9 -15 1z"/>
<path d="M1901 5644 c0 -11 3 -14 6 -6 3 7 2 16 -1 19 -3 4 -6 -2 -5 -13z"/>
<path d="M2015 5609 c-4 -6 -5 -12 -2 -15 2 -3 7 2 10 11 7 17 1 20 -8 4z"/>
<path d="M2115 5581 c-3 -5 -2 -12 3 -15 5 -3 9 1 9 9 0 17 -3 19 -12 6z"/>
<path d="M2312 5566 c-12 -20 -11 -38 1 -27 7 5 16 9 22 8 5 -1 11 5 13 14 3
18 -25 22 -36 5z m22 -4 c3 -5 -1 -9 -9 -9 -8 0 -12 4 -9 9 3 4 7 8 9 8 2 0 6
-4 9 -8z"/>
<path d="M2279 5568 c-6 -21 -5 -38 1 -38 5 0 8 9 7 20 -1 17 -5 26 -8 18z"/>
<path d="M2390 5540 c0 -5 5 -10 10 -10 6 0 10 5 10 10 0 6 -4 10 -10 10 -5 0
-10 -4 -10 -10z"/>
<path d="M2320 5519 c0 -5 5 -7 10 -4 6 3 10 8 10 11 0 2 -4 4 -10 4 -5 0 -10
-5 -10 -11z"/>
<path d="M2491 5496 c-12 -14 -11 -16 5 -9 16 6 17 5 6 -9 -9 -11 -10 -18 -2
-23 6 -4 9 -1 8 7 -2 7 5 12 15 12 10 -1 16 1 13 4 -3 3 -1 10 4 17 7 8 5 12
-5 12 -8 0 -12 -4 -9 -9 3 -4 1 -8 -5 -8 -5 0 -11 5 -13 11 -2 7 -9 5 -17 -5z"/>
<path d="M2588 5453 c6 -2 9 -10 6 -15 -4 -7 -2 -8 5 -4 13 9 5 26 -12 25 -9
0 -8 -2 1 -6z"/>
<path d="M2655 5449 c-3 -3 6 -5 18 -5 27 3 49 -12 40 -27 -3 -5 -1 -7 5 -4
23 15 6 41 -27 42 -18 0 -34 -2 -36 -6z"/>
<path d="M2614 5418 c-3 -4 5 -5 17 -3 30 6 36 14 9 12 -12 -1 -24 -5 -26 -9z"/>
<path d="M2678 5423 c7 -3 16 -2 19 1 4 3 -2 6 -13 5 -11 0 -14 -3 -6 -6z"/>
<path d="M2815 5409 c-5 -8 -5 -11 0 -7 4 4 15 -2 24 -13 17 -21 17 -21 18 3
0 12 -1 17 -4 10 -4 -10 -8 -9 -17 4 -11 14 -14 15 -21 3z"/>
<path d="M2720 5400 c-12 -7 -10 -9 7 -7 12 0 19 5 17 9 -6 10 -6 10 -24 -2z"/>
<path d="M2775 5380 c3 -5 8 -10 11 -10 2 0 4 5 4 10 0 6 -5 10 -11 10 -5 0
-7 -4 -4 -10z"/>
<path d="M2815 5360 c-3 -5 -1 -10 4 -10 6 0 11 5 11 10 0 6 -2 10 -4 10 -3 0
-8 -4 -11 -10z"/>
<path d="M2955 5340 c-3 -6 1 -7 9 -4 18 7 21 14 7 14 -6 0 -13 -4 -16 -10z"/>
<path d="M3228 5293 c3 -18 7 -21 13 -11 12 18 11 25 -4 31 -10 4 -13 -2 -9
-20z"/>
<path d="M3296 5275 c-9 -26 -7 -32 5 -12 6 10 9 21 6 23 -2 3 -7 -2 -11 -11z"/>
<path d="M3270 5240 c0 -5 5 -10 11 -10 5 0 7 5 4 10 -3 6 -8 10 -11 10 -2 0
-4 -4 -4 -10z"/>
<path d="M3336 5234 c-5 -14 -4 -15 9 -4 17 14 19 20 6 20 -5 0 -12 -7 -15
-16z"/>
<path d="M3360 5226 c0 -2 7 -7 16 -10 8 -3 12 -2 9 4 -6 10 -25 14 -25 6z"/>
<path d="M3510 5180 c0 -5 5 -10 11 -10 5 0 7 5 4 10 -3 6 -8 10 -11 10 -2 0
-4 -4 -4 -10z"/>
<path d="M3550 5176 c0 -2 7 -9 15 -16 13 -11 14 -10 9 4 -5 14 -24 23 -24 12z"/>
<path d="M3766 5134 c1 -14 6 -29 10 -32 4 -4 5 1 1 10 -3 9 0 19 8 22 8 3 13
0 11 -7 -1 -7 -1 -9 1 -4 7 12 23 8 21 -5 -2 -7 5 -12 15 -13 16 0 25 14 10
16 -5 0 -16 8 -26 16 -9 9 -20 13 -24 10 -3 -4 -12 -2 -18 3 -9 8 -12 4 -9
-16z"/>
<path d="M3670 5126 c0 -2 7 -7 16 -10 8 -3 12 -2 9 4 -6 10 -25 14 -25 6z"/>
<path d="M3848 5093 c-24 -6 -23 -19 0 -19 10 0 19 6 19 13 0 7 -1 12 -1 12
-1 -1 -9 -3 -18 -6z"/>
<path d="M3954 5088 c-3 -4 -2 -8 3 -8 4 0 1 -5 -7 -10 -9 -6 -10 -10 -3 -10
10 0 43 26 43 34 0 7 -31 2 -36 -6z"/>
<path d="M4026 5093 c-11 -11 -7 -20 9 -20 8 0 15 4 15 8 0 11 -16 20 -24 12z"/>
<path d="M3891 5073 c7 -12 15 -20 18 -17 3 2 -3 12 -13 22 -17 16 -18 16 -5
-5z"/>
<path d="M3975 5049 c-4 -6 -5 -12 -2 -15 2 -3 7 2 10 11 7 17 1 20 -8 4z"/>
<path d="M4013 5041 c0 -11 5 -18 9 -15 4 3 5 11 1 19 -7 21 -12 19 -10 -4z"/>
<path d="M4141 4998 c-13 -20 -12 -22 1 -11 8 7 18 10 22 6 4 -4 4 0 0 10 -8
21 -6 21 -23 -5z"/>
<path d="M4095 5000 c3 -5 8 -10 11 -10 2 0 4 5 4 10 0 6 -5 10 -11 10 -5 0
-7 -4 -4 -10z"/>
<path d="M4404 4968 c1 -13 5 -29 9 -35 5 -7 5 -18 1 -25 -4 -6 5 -3 19 8 15
10 27 22 27 26 0 4 7 4 17 1 11 -4 14 -3 9 6 -5 7 -14 10 -21 7 -7 -2 -21 4
-31 15 -23 25 -31 24 -30 -3z m37 -31 c-13 -13 -31 0 -24 19 4 11 8 12 20 3 9
-8 10 -16 4 -22z"/>
<path d="M4275 4951 c-3 -5 -2 -12 3 -15 5 -3 9 1 9 9 0 17 -3 19 -12 6z"/>
<path d="M4470 4922 c0 -5 7 -9 15 -9 8 0 12 4 9 9 -3 4 -9 8 -15 8 -5 0 -9
-4 -9 -8z"/>
<path d="M4701 4844 c0 -11 3 -14 6 -6 3 7 2 16 -1 19 -3 4 -6 -2 -5 -13z"/>
<path d="M4766 4822 c-3 -5 1 -9 9 -9 8 0 12 4 9 9 -3 4 -7 8 -9 8 -2 0 -6 -4
-9 -8z"/>
<path d="M4996 4794 c-8 -20 0 -32 14 -18 5 5 5 15 1 22 -6 11 -10 10 -15 -4z"/>
<path d="M4866 4778 c3 -5 10 -6 15 -3 13 9 11 12 -6 12 -8 0 -12 -4 -9 -9z"/>
<path d="M4900 4786 c0 -2 11 -6 25 -8 13 -3 22 -1 19 3 -5 9 -44 13 -44 5z"/>
<path d="M5054 4767 c-4 -7 -4 -9 1 -5 4 4 15 -1 24 -10 9 -10 13 -13 9 -7 -4
7 -5 14 -2 17 2 3 -2 8 -10 11 -9 4 -18 1 -22 -6z"/>
<path d="M5020 4759 c0 -5 5 -7 10 -4 6 3 10 8 10 11 0 2 -4 4 -10 4 -5 0 -10
-5 -10 -11z"/>
<path d="M5046 4742 c-3 -5 1 -9 9 -9 8 0 12 4 9 9 -3 4 -7 8 -9 8 -2 0 -6 -4
-9 -8z"/>
<path d="M6580 4706 c0 -2 8 -10 18 -17 15 -13 16 -12 3 4 -13 16 -21 21 -21
13z"/>
<path d="M5430 4669 c0 -4 5 -11 10 -14 6 -3 10 -1 10 6 0 7 3 9 8 5 4 -4 7
-13 7 -18 0 -6 7 -13 15 -15 13 -4 13 -3 0 6 -13 9 -13 11 2 11 9 0 18 -6 21
-12 4 -10 7 -10 16 -1 6 7 8 11 4 8 -3 -3 -15 3 -25 12 -20 18 -68 26 -68 12z"/>
<path d="M5601 4616 c-21 -22 -13 -30 14 -15 6 4 18 5 27 4 14 -3 15 0 5 16
-15 24 -19 24 -46 -5z m35 2 c4 -7 4 -10 -1 -6 -4 4 -15 2 -24 -5 -14 -11 -14
-10 -2 6 16 20 18 21 27 5z"/>
<path d="M6590 4626 c0 -2 7 -7 16 -10 8 -3 12 -2 9 4 -6 10 -25 14 -25 6z"/>
<path d="M5677 4613 c-13 -12 -7 -22 11 -17 15 5 14 3 -2 -10 -11 -9 -17 -18
-14 -21 3 -3 12 1 21 9 15 16 27 12 23 -7 -2 -7 -1 -9 1 -4 3 4 9 7 14 7 6 0
8 -4 5 -9 -3 -5 0 -11 7 -14 9 -3 13 2 12 16 -1 13 -9 22 -17 22 -9 0 -25 8
-35 18 -11 9 -23 14 -26 10z"/>
<path d="M5433 4595 c0 -8 4 -12 9 -9 5 3 6 10 3 15 -9 13 -12 11 -12 -6z"/>
<path d="M6580 4599 c0 -5 5 -7 10 -4 6 3 10 8 10 11 0 2 -4 4 -10 4 -5 0 -10
-5 -10 -11z"/>
<path d="M5555 4591 c-3 -5 -2 -12 3 -15 5 -3 9 1 9 9 0 17 -3 19 -12 6z"/>
<path d="M5615 4580 c-3 -5 -1 -10 4 -10 6 0 11 5 11 10 0 6 -2 10 -4 10 -3 0
-8 -4 -11 -10z"/>
<path d="M5616 4542 c-3 -5 1 -9 9 -9 8 0 12 4 9 9 -3 4 -7 8 -9 8 -2 0 -6 -4
-9 -8z"/>
<path d="M5656 4538 c3 -5 10 -6 15 -3 13 9 11 12 -6 12 -8 0 -12 -4 -9 -9z"/>
<path d="M5758 4523 c7 -3 16 -2 19 1 4 3 -2 6 -13 5 -11 0 -14 -3 -6 -6z"/>
<path d="M6591 4442 c-7 -13 -6 -19 2 -19 7 0 13 9 13 19 0 10 -1 18 -3 18 -1
0 -7 -8 -12 -18z"/>
<path d="M575 4319 c-3 -4 2 -6 10 -5 21 3 28 13 10 13 -9 0 -18 -4 -20 -8z"/>
<path d="M6580 4326 c0 -2 8 -10 18 -17 15 -13 16 -12 3 4 -13 16 -21 21 -21
13z"/>
<path d="M6585 4260 c-3 -5 -2 -18 4 -27 7 -14 9 -12 8 10 -2 30 -3 31 -12 17z"/>
<path d="M6597 4196 c-17 -13 -17 -14 0 -20 10 -4 14 -4 10 0 -4 4 -2 13 4 21
14 17 9 16 -14 -1z"/>
<path d="M599 4153 c-13 -16 -12 -17 4 -4 9 7 17 15 17 17 0 8 -8 3 -21 -13z"/>
<path d="M6586 4105 c-11 -8 -17 -17 -14 -20 2 -3 13 4 23 15 21 23 18 25 -9
5z"/>
<path d="M590 4106 c0 -2 7 -7 16 -10 8 -3 12 -2 9 4 -6 10 -25 14 -25 6z"/>
<path d="M576 4022 c-3 -5 1 -9 9 -9 8 0 12 4 9 9 -3 4 -7 8 -9 8 -2 0 -6 -4
-9 -8z"/>
<path d="M6570 3985 c0 -5 5 -17 10 -25 5 -8 10 -10 10 -5 0 6 -5 17 -10 25
-5 8 -10 11 -10 5z"/>
<path d="M593 3925 c0 -8 4 -12 9 -9 5 3 6 10 3 15 -9 13 -12 11 -12 -6z"/>
<path d="M6563 3914 c0 -10 4 -11 10 -5 7 7 16 7 26 -1 13 -10 14 -10 4 2 -17
19 -40 21 -40 4z"/>
<path d="M6575 3880 c3 -5 8 -10 11 -10 2 0 4 5 4 10 0 6 -5 10 -11 10 -5 0
-7 -4 -4 -10z"/>
<path d="M6570 3850 c-9 -6 -10 -10 -3 -10 6 0 15 5 18 10 8 12 4 12 -15 0z"/>
<path d="M592 3750 c-12 -19 -11 -20 8 -8 11 7 20 16 20 20 0 15 -15 8 -28
-12z"/>
<path d="M6580 3766 c0 -2 8 -10 18 -17 15 -13 16 -12 3 4 -13 16 -21 21 -21
13z"/>
<path d="M6575 3720 c3 -5 8 -10 11 -10 2 0 4 5 4 10 0 6 -5 10 -11 10 -5 0
-7 -4 -4 -10z"/>
<path d="M6570 3690 c-9 -6 -10 -10 -3 -10 6 0 15 5 18 10 8 12 4 12 -15 0z"/>
<path d="M588 3638 c5 -5 16 -8 23 -6 8 3 3 7 -10 11 -17 4 -21 3 -13 -5z"/>
<path d="M6566 3519 c4 -8 30 -6 38 2 3 3 -5 5 -19 5 -13 0 -22 -3 -19 -7z"/>
<path d="M6575 3440 c3 -5 8 -10 11 -10 2 0 4 5 4 10 0 6 -5 10 -11 10 -5 0
-7 -4 -4 -10z"/>
<path d="M598 3403 c7 -3 16 -2 19 1 4 3 -2 6 -13 5 -11 0 -14 -3 -6 -6z"/>
<path d="M6565 3380 c-3 -5 -1 -10 4 -10 6 0 11 5 11 10 0 6 -2 10 -4 10 -3 0
-8 -4 -11 -10z"/>
<path d="M605 3360 c3 -5 8 -10 11 -10 2 0 4 5 4 10 0 6 -5 10 -11 10 -5 0 -7
-4 -4 -10z"/>
<path d="M590 3340 c0 -6 7 -10 15 -10 8 0 15 2 15 4 0 2 -7 6 -15 10 -8 3
-15 1 -15 -4z"/>
<path d="M6574 3338 c-4 -7 -4 -10 1 -6 4 4 15 2 24 -5 14 -11 14 -10 2 6 -16
20 -18 21 -27 5z"/>
<path d="M595 3309 c-4 -6 -5 -12 -2 -15 2 -3 7 2 10 11 7 17 1 20 -8 4z"/>
<path d="M6563 3305 c0 -7 6 -11 14 -8 7 3 13 6 13 8 0 2 -6 5 -13 8 -8 3 -14
-1 -14 -8z"/>
<path d="M576 3173 c-6 -14 -5 -15 5 -6 7 7 10 15 7 18 -3 3 -9 -2 -12 -12z"/>
<path d="M6577 3138 c-13 -10 -14 -17 -6 -28 9 -13 10 -12 5 3 -5 15 5 22 27
18 5 -1 6 3 2 9 -8 13 -8 13 -28 -2z"/>
<path d="M593 3125 c0 -8 4 -12 9 -9 5 3 6 10 3 15 -9 13 -12 11 -12 -6z"/>
<path d="M602 3085 c-17 -37 -14 -45 4 -12 9 16 14 31 11 33 -2 2 -9 -7 -15
-21z"/>
<path d="M6560 3041 c0 -5 7 -12 16 -15 14 -5 15 -4 4 9 -14 17 -20 19 -20 6z"/>
<path d="M611 3004 c0 -11 3 -14 6 -6 3 7 2 16 -1 19 -3 4 -6 -2 -5 -13z"/>
<path d="M579 2993 c-13 -16 -12 -17 4 -4 9 7 17 15 17 17 0 8 -8 3 -21 -13z"/>
<path d="M587 2959 c7 -7 15 -10 18 -7 3 3 -2 9 -12 12 -14 6 -15 5 -6 -5z"/>
<path d="M576 2927 c3 -10 9 -15 12 -12 3 3 0 11 -7 18 -10 9 -11 8 -5 -6z"/>
<path d="M596 2902 c-3 -5 1 -9 9 -9 8 0 12 4 9 9 -3 4 -7 8 -9 8 -2 0 -6 -4
-9 -8z"/>
<path d="M6560 2876 c0 -2 7 -7 16 -10 8 -3 12 -2 9 4 -6 10 -25 14 -25 6z"/>
<path d="M590 2820 c0 -5 7 -7 15 -4 8 4 15 8 15 10 0 2 -7 4 -15 4 -8 0 -15
-4 -15 -10z"/>
<path d="M607 2765 c-4 -8 -3 -16 1 -19 4 -3 9 4 9 15 2 23 -3 25 -10 4z"/>
<path d="M6593 2743 c4 -3 1 -13 -6 -22 -11 -14 -10 -14 5 -2 16 12 16 31 1
31 -4 0 -3 -3 0 -7z"/>
<path d="M605 2639 c-4 -6 -5 -12 -2 -15 2 -3 7 2 10 11 7 17 1 20 -8 4z"/>
<path d="M597 2589 c7 -7 15 -10 18 -7 3 3 -2 9 -12 12 -14 6 -15 5 -6 -5z"/>
<path d="M6574 2574 c-18 -15 -18 -15 2 -5 12 6 25 7 29 3 5 -4 5 -1 1 6 -9
15 -8 15 -32 -4z"/>
<path d="M6575 2540 c3 -5 8 -10 11 -10 2 0 4 5 4 10 0 6 -5 10 -11 10 -5 0
-7 -4 -4 -10z"/>
<path d="M6575 2480 c3 -5 8 -10 11 -10 2 0 4 5 4 10 0 6 -5 10 -11 10 -5 0
-7 -4 -4 -10z"/>
<path d="M6577 2453 c-10 -9 -9 -23 1 -23 5 0 9 7 9 15 0 17 -1 18 -10 8z"/>
<path d="M602 2422 c-11 -25 -11 -25 4 -10 9 9 15 21 13 27 -2 6 -10 -2 -17
-17z"/>
<path d="M6564 2401 c0 -15 4 -17 18 -10 9 5 20 15 24 22 6 9 5 9 -7 0 -10 -8
-19 -9 -25 -3 -6 6 -10 3 -10 -9z"/>
<path d="M6575 2371 c-3 -5 -2 -12 3 -15 5 -3 9 1 9 9 0 17 -3 19 -12 6z"/>
<path d="M6577 2333 c-10 -9 -9 -23 1 -23 5 0 9 7 9 15 0 17 -1 18 -10 8z"/>
<path d="M587 2319 c7 -9 10 -19 6 -22 -3 -4 -1 -7 5 -7 17 0 15 16 -5 31 -16
12 -17 12 -6 -2z"/>
<path d="M6586 2257 c3 -10 9 -15 12 -12 3 3 0 11 -7 18 -10 9 -11 8 -5 -6z"/>
<path d="M597 2209 c4 -13 8 -18 11 -10 2 7 -1 18 -6 23 -8 8 -9 4 -5 -13z"/>
<path d="M6569 2126 c-9 -19 -9 -19 4 -4 8 10 16 15 19 12 4 -3 8 -1 12 4 3 5
-2 9 -10 9 -8 0 -20 -10 -25 -21z"/>
<path d="M6574 2099 c-3 -6 -3 -13 0 -16 3 -4 6 -1 6 5 0 6 7 9 15 6 8 -4 15
-4 15 -1 0 11 -30 16 -36 6z"/>
<path d="M605 2081 c-3 -5 -2 -12 3 -15 5 -3 9 1 9 9 0 17 -3 19 -12 6z"/>
<path d="M6591 2034 c0 -11 3 -14 6 -6 3 7 2 16 -1 19 -3 4 -6 -2 -5 -13z"/>
<path d="M6566 2013 c-6 -14 -5 -15 5 -6 7 7 10 15 7 18 -3 3 -9 -2 -12 -12z"/>
<path d="M6574 1809 c-3 -6 -2 -15 3 -20 5 -5 9 -1 9 11 0 23 -2 24 -12 9z"/>
<path d="M600 1760 c0 -5 5 -10 10 -10 6 0 10 5 10 10 0 6 -4 10 -10 10 -5 0
-10 -4 -10 -10z"/>
<path d="M596 1667 c-16 -12 -16 -13 2 -13 10 0 19 6 19 13 0 7 -1 13 -2 13
-1 0 -9 -6 -19 -13z"/>
<path d="M595 1620 c-3 -5 -1 -10 4 -10 6 0 11 5 11 10 0 6 -2 10 -4 10 -3 0
-8 -4 -11 -10z"/>
<path d="M595 1590 c-3 -6 1 -7 9 -4 18 7 21 14 7 14 -6 0 -13 -4 -16 -10z"/>
<path d="M595 1540 c-3 -5 -1 -10 4 -10 6 0 11 5 11 10 0 6 -2 10 -4 10 -3 0
-8 -4 -11 -10z"/>
<path d="M6584 1530 c0 -13 4 -16 10 -10 7 7 7 13 0 20 -6 6 -10 3 -10 -10z"/>
<path d="M596 1478 c3 -4 9 -8 15 -8 5 0 9 4 9 8 0 5 -7 9 -15 9 -8 0 -12 -4
-9 -9z"/>
<path d="M6590 1379 c0 -5 5 -7 10 -4 6 3 10 8 10 11 0 2 -4 4 -10 4 -5 0 -10
-5 -10 -11z"/>
<path d="M590 1282 c0 -4 10 -9 22 -9 18 -2 20 0 8 7 -18 12 -30 13 -30 2z"/>
<path d="M6577 1263 c-4 -3 -7 -11 -7 -17 0 -6 5 -5 12 2 6 6 9 14 7 17 -3 3
-9 2 -12 -2z"/>
<path d="M590 1240 c0 -5 5 -10 11 -10 5 0 7 5 4 10 -3 6 -8 10 -11 10 -2 0
-4 -4 -4 -10z"/>
<path d="M6572 1217 c-8 -9 -8 -17 0 -27 8 -13 9 -12 5 2 -3 9 -1 19 6 21 7 2
9 7 6 11 -3 4 -11 1 -17 -7z"/>
<path d="M585 1160 c-3 -6 1 -7 9 -4 18 7 21 14 7 14 -6 0 -13 -4 -16 -10z"/>
<path d="M610 1115 c0 -8 2 -15 4 -15 2 0 6 7 10 15 3 8 1 15 -4 15 -6 0 -10
-7 -10 -15z"/>
<path d="M607 1079 c7 -7 15 -10 18 -7 3 3 -2 9 -12 12 -14 6 -15 5 -6 -5z"/>
<path d="M607 1039 c7 -7 15 -10 18 -7 3 3 -2 9 -12 12 -14 6 -15 5 -6 -5z"/>
<path d="M6563 1034 c0 -7 6 -10 14 -7 7 3 13 8 13 12 0 4 -6 8 -13 8 -8 0
-14 -6 -14 -13z"/>
<path d="M6575 1000 c3 -5 8 -10 11 -10 2 0 4 5 4 10 0 6 -5 10 -11 10 -5 0
-7 -4 -4 -10z"/>
<path d="M596 981 c-3 -5 2 -15 12 -22 15 -12 16 -12 5 2 -7 9 -10 19 -6 22 3
4 4 7 0 7 -3 0 -8 -4 -11 -9z"/>
<path d="M6550 986 c0 -2 7 -7 16 -10 8 -3 12 -2 9 4 -6 10 -25 14 -25 6z"/>
<path d="M6542 950 c-9 -14 -8 -19 3 -24 8 -3 17 0 21 6 4 7 3 8 -4 4 -7 -4
-12 -3 -12 3 0 5 5 11 12 13 7 3 8 7 2 11 -5 3 -15 -3 -22 -13z"/>
<path d="M630 951 c0 -6 5 -13 10 -16 8 -5 7 -12 -2 -23 -12 -15 -11 -16 5 -3
12 9 14 17 7 26 -5 6 -7 15 -3 18 3 4 1 7 -5 7 -7 0 -12 -4 -12 -9z"/>
<path d="M610 919 c0 -5 5 -7 10 -4 6 3 10 8 10 11 0 2 -4 4 -10 4 -5 0 -10
-5 -10 -11z"/>
<path d="M625 880 c-4 -6 -3 -10 2 -9 22 4 34 -2 27 -13 -5 -9 -2 -9 9 1 9 7
17 19 16 25 0 7 -2 6 -6 -1 -3 -9 -10 -10 -23 -3 -13 7 -21 7 -25 0z"/>
<path d="M6536 882 c-2 -4 0 -14 6 -22 8 -12 9 -12 5 2 -3 9 -1 19 6 22 9 3 9
5 0 5 -6 1 -14 -3 -17 -7z"/>
<path d="M694 808 c-4 -7 -3 -8 4 -4 8 5 11 -2 8 -23 -2 -21 1 -28 10 -24 20
8 24 31 8 48 -18 18 -21 18 -30 3z"/>
<path d="M6404 742 c-6 -4 -4 -13 8 -24 10 -10 18 -13 18 -7 0 5 6 7 13 3 6
-4 3 2 -7 14 -11 12 -20 22 -20 22 -1 0 -6 -4 -12 -8z"/>
<path d="M6385 709 c-10 -15 3 -25 16 -12 7 7 7 13 1 17 -6 3 -14 1 -17 -5z"/>
<path d="M2636 622 c-3 -5 1 -9 9 -9 8 0 12 4 9 9 -3 4 -7 8 -9 8 -2 0 -6 -4
-9 -8z"/>
<path d="M4796 623 c-4 -5 -12 -9 -17 -9 -5 -1 -13 -2 -18 -3 -5 0 -11 -11
-14 -23 -5 -21 -5 -21 7 -6 10 13 15 15 24 6 7 -7 12 -8 12 -4 0 5 7 3 15 -4
13 -11 14 -10 9 5 -6 14 -4 16 7 10 12 -7 12 -6 -1 11 -8 10 -15 20 -16 22 0
1 -4 -1 -8 -5z m14 -18 c0 -7 -30 -13 -34 -7 -3 4 4 9 15 9 10 1 19 0 19 -2z"/>
<path d="M5007 624 c-3 -3 -13 -7 -23 -8 -10 -2 -20 -9 -22 -17 -3 -11 -1 -11
7 1 6 8 11 11 11 5 0 -5 12 -15 26 -22 21 -10 24 -10 14 2 -7 8 -7 15 -1 19 5
3 11 1 13 -6 3 -7 7 -8 11 -2 6 11 -27 36 -36 28z m8 -14 c-3 -5 -12 -10 -18
-10 -7 0 -6 4 3 10 19 12 23 12 15 0z"/>
<path d="M1374 605 c-4 -8 -10 -15 -16 -15 -5 0 -6 5 -2 12 4 7 3 8 -4 4 -16
-10 -15 -14 9 -27 12 -6 19 -7 16 -2 -3 5 -2 15 4 23 7 13 9 13 10 0 1 -8 1
-18 0 -22 0 -5 3 -8 8 -8 5 0 8 11 7 25 -1 27 -23 34 -32 10z"/>
<path d="M1573 594 c0 -16 2 -22 7 -15 4 7 10 12 14 12 3 -1 9 0 14 0 4 1 15
1 25 0 9 -1 17 2 17 7 0 10 -36 9 -46 -1 -4 -4 -12 0 -18 8 -9 13 -11 11 -13
-11z"/>
<path d="M1814 605 c-4 -8 -10 -15 -16 -15 -5 0 -6 5 -2 12 4 7 3 8 -5 4 -8
-6 -9 -12 -2 -20 6 -7 10 -15 8 -17 -1 -2 4 2 11 10 6 8 12 18 12 23 0 4 7 4
17 1 11 -4 14 -3 9 5 -10 17 -26 15 -32 -3z"/>
<path d="M1914 605 c-10 -8 -17 -15 -14 -15 31 -7 36 -6 36 11 0 11 -1 19 -1
19 -1 0 -10 -7 -21 -15z"/>
<path d="M1986 606 c3 -9 11 -13 17 -9 6 4 8 0 5 -9 -4 -9 0 -15 8 -15 20 0
13 17 -14 35 -20 13 -22 13 -16 -2z"/>
<path d="M2973 604 c-3 -8 -8 -12 -12 -10 -4 3 -13 0 -21 -6 -12 -8 -12 -9 3
-4 10 3 17 0 17 -7 1 -7 6 -2 13 9 7 12 20 20 30 18 11 -1 16 0 13 4 -13 12
-37 10 -43 -4z"/>
<path d="M3040 610 c-13 -9 -13 -12 3 -21 9 -6 15 -14 12 -19 -3 -5 -1 -11 4
-14 11 -7 9 13 -2 32 -5 6 -5 17 -2 22 8 13 4 12 -15 0z"/>
<path d="M3236 613 c-12 -13 -5 -20 19 -20 14 0 28 5 32 11 3 6 3 8 -2 4 -4
-4 -15 -3 -25 2 -10 5 -20 6 -24 3z"/>
<path d="M3316 613 c-15 -15 -3 -22 35 -19 28 2 39 0 35 -9 -2 -6 2 -12 9 -12
10 0 11 5 4 19 -11 21 -3 24 16 4 8 -7 11 -17 7 -22 -4 -5 1 -2 11 5 16 12 22
8 18 -12 -1 -5 3 -6 9 -2 8 5 7 11 -1 21 -6 8 -14 12 -17 9 -3 -3 -14 2 -24
11 -15 14 -20 15 -34 3 -10 -8 -20 -12 -23 -11 -28 17 -39 20 -45 15z"/>
<path d="M3550 609 c0 -5 5 -7 10 -4 10 6 13 -3 13 -37 0 -10 4 -15 8 -12 5 3
6 10 3 16 -5 7 0 9 14 6 14 -4 19 -2 15 8 -2 7 -10 11 -18 8 -7 -3 -15 2 -18
10 -7 18 -27 22 -27 5z"/>
<path d="M3795 610 c-3 -5 -2 -18 4 -27 7 -14 9 -12 8 10 -2 30 -3 31 -12 17z"/>
<path d="M3847 604 c3 -8 9 -14 15 -14 5 0 7 -4 4 -8 -3 -5 1 -9 9 -9 9 0 11
4 6 11 -5 6 -9 15 -8 20 1 5 -6 10 -15 12 -11 1 -15 -3 -11 -12z"/>
<path d="M3894 608 c-4 -6 -2 -14 4 -16 7 -2 9 -8 6 -14 -4 -6 3 -5 15 1 12 7
27 9 33 5 7 -4 8 -3 4 5 -5 7 -16 9 -28 5 -13 -4 -18 -2 -14 4 3 6 2 13 -3 16
-5 4 -13 1 -17 -6z"/>
<path d="M3979 598 c-6 -12 -6 -18 1 -18 5 0 10 8 10 18 1 16 1 16 11 -1 10
-17 44 -18 70 -1 8 4 9 -1 5 -17 -7 -24 -7 -24 8 1 13 21 20 21 18 -1 -1 -3 6
-6 13 -6 10 0 12 4 5 12 -5 7 -7 15 -4 18 9 8 33 -16 26 -27 -3 -5 0 -6 7 -2
9 6 8 12 -3 25 -16 18 -51 22 -72 8 -6 -3 -14 -3 -18 1 -15 15 -67 8 -77 -10z
m71 4 c0 -4 -9 -8 -20 -9 -11 -1 -20 2 -20 5 0 4 9 8 20 9 11 1 20 -2 20 -5z"/>
<path d="M4333 603 c-6 -15 12 -33 32 -33 6 1 2 5 -7 11 -22 12 -23 26 -3 26
8 0 15 -4 15 -8 0 -4 7 -10 16 -13 8 -3 12 -2 9 4 -8 13 8 13 22 -1 8 -8 13
-8 17 0 4 6 6 11 4 12 -71 17 -99 18 -105 2z"/>
<path d="M5061 601 c-17 -30 -12 -39 5 -11 14 24 15 24 11 2 -3 -12 -1 -20 4
-16 12 7 12 31 0 39 -6 3 -15 -3 -20 -14z"/>
<path d="M5397 603 c4 -11 8 -12 13 -3 10 16 24 -5 14 -22 -5 -9 -4 -10 4 -3
22 20 17 38 -10 40 -19 1 -25 -2 -21 -12z"/>
<path d="M5480 601 c0 -11 4 -22 9 -25 4 -3 6 6 3 19 -5 30 -12 33 -12 6z"/>
<path d="M1269 593 c-13 -16 -12 -17 4 -4 16 13 21 21 13 21 -2 0 -10 -8 -17
-17z"/>
<path d="M1665 601 c3 -2 0 -10 -6 -18 -9 -9 -8 -13 0 -13 6 0 11 5 11 11 0 8
4 8 13 0 14 -11 37 3 37 23 0 5 -7 1 -16 -10 -10 -13 -14 -14 -11 -4 3 10 -2
16 -14 16 -10 0 -16 -2 -14 -5z"/>
<path d="M2161 597 c-6 -6 -11 -16 -11 -21 0 -6 5 -3 11 6 5 10 16 15 24 12 8
-4 15 -4 15 -1 0 11 -28 15 -39 4z"/>
<path d="M2210 602 c0 -7 5 -12 11 -12 5 0 7 -5 3 -11 -3 -6 5 -4 19 6 24 15
26 15 36 -2 9 -16 11 -14 11 15 0 10 -21 10 -41 1 -9 -5 -21 -3 -27 3 -9 9
-12 9 -12 0z"/>
<path d="M2340 595 c-7 -8 -16 -13 -20 -10 -5 3 -11 1 -14 -4 -4 -5 2 -8 11
-6 10 2 21 4 24 4 7 1 21 31 15 31 -2 0 -9 -7 -16 -15z"/>
<path d="M2483 603 c-7 -2 -13 -9 -13 -14 0 -6 4 -8 9 -5 5 4 11 0 14 -6 3 -7
4 -3 4 10 -1 12 -1 22 -2 21 0 0 -6 -3 -12 -6z"/>
<path d="M2593 603 c4 -3 1 -13 -6 -22 -10 -14 -10 -14 4 -4 9 7 19 10 23 6 4
-4 4 0 0 10 -3 9 -11 17 -17 17 -6 0 -7 -3 -4 -7z"/>
<path d="M3190 599 c0 -5 5 -7 10 -4 6 3 10 8 10 11 0 2 -4 4 -10 4 -5 0 -10
-5 -10 -11z"/>
<path d="M3476 602 c-2 -4 -1 -14 4 -22 7 -11 9 -9 7 8 -1 24 -3 26 -11 14z"/>
<path d="M3501 594 c0 -11 3 -14 6 -6 3 7 2 16 -1 19 -3 4 -6 -2 -5 -13z"/>
<path d="M4890 599 c0 -4 7 -10 16 -13 8 -3 13 -2 9 3 -3 5 1 11 7 14 7 3 3 4
-9 4 -13 -1 -23 -4 -23 -8z"/>
<path d="M5150 601 c0 -7 -5 -9 -12 -5 -7 5 -8 3 -3 -5 5 -9 10 -10 18 -2 6 6
8 14 4 18 -4 3 -7 1 -7 -6z"/>
<path d="M5330 599 c0 -4 7 -10 16 -13 8 -3 13 -2 9 3 -3 5 1 11 7 14 7 3 3 4
-9 4 -13 -1 -23 -4 -23 -8z"/>
<path d="M5103 585 c0 -8 4 -12 9 -9 5 3 6 10 3 15 -9 13 -12 11 -12 -6z"/>
<path d="M5706 583 c-6 -14 -5 -15 5 -6 7 7 10 15 7 18 -3 3 -9 -2 -12 -12z"/>
<path d="M1156 576 c6 -15 4 -17 -6 -11 -9 6 -11 4 -5 -4 5 -9 10 -10 18 -2 8
8 7 14 -2 24 -10 10 -11 8 -5 -7z"/>
<path d="M1892 574 c10 -10 20 -16 22 -13 3 3 -5 11 -17 18 -21 13 -21 12 -5
-5z"/>
<path d="M2715 580 c-3 -5 -1 -10 4 -10 6 0 11 5 11 10 0 6 -2 10 -4 10 -3 0
-8 -4 -11 -10z"/>
<path d="M2813 569 c-2 -23 3 -25 10 -4 4 8 3 16 -1 19 -4 3 -9 -4 -9 -15z"/>
<path d="M2986 581 c-4 -5 3 -7 14 -4 23 6 26 13 6 13 -8 0 -17 -4 -20 -9z"/>
<path d="M3214 582 c3 -6 -2 -15 -11 -21 -10 -6 -13 -11 -7 -11 20 0 37 27 23
36 -7 4 -9 3 -5 -4z"/>
<path d="M3293 575 c0 -8 4 -12 9 -9 5 3 6 10 3 15 -9 13 -12 11 -12 -6z"/>
<path d="M3675 580 c-3 -5 -1 -10 4 -10 6 0 11 5 11 10 0 6 -2 10 -4 10 -3 0
-8 -4 -11 -10z"/>
<path d="M5235 581 c-3 -5 -2 -12 3 -15 5 -3 9 1 9 9 0 17 -3 19 -12 6z"/>
<path d="M5519 588 c-6 -21 -5 -37 2 -32 5 3 6 10 3 16 -5 8 -1 9 10 5 10 -4
15 -3 11 3 -5 9 -24 14 -26 8z"/>
<path d="M5868 583 c7 -3 16 -2 19 1 4 3 -2 6 -13 5 -11 0 -14 -3 -6 -6z"/>
<path d="M6180 586 c0 -2 7 -7 16 -10 8 -3 12 -2 9 4 -6 10 -25 14 -25 6z"/>
<path d="M1610 569 c0 -5 -4 -8 -9 -4 -5 3 -12 1 -15 -4 -4 -5 2 -8 11 -7 15
3 33 26 19 26 -3 0 -6 -5 -6 -11z"/>
<path d="M2250 570 c-9 -6 -10 -10 -3 -10 6 0 15 5 18 10 8 12 4 12 -15 0z"/>
<path d="M2510 577 c0 -2 6 -10 14 -16 11 -9 16 -9 22 1 4 7 4 10 -1 6 -4 -4
-14 -3 -22 3 -7 6 -13 9 -13 6z"/>
<path d="M2777 565 c3 -8 9 -12 14 -9 12 7 11 11 -5 17 -10 4 -13 1 -9 -8z"/>
<path d="M2911 564 c0 -11 3 -14 6 -6 3 7 2 16 -1 19 -3 4 -6 -2 -5 -13z"/>
<path d="M3340 566 c7 -7 13 -7 20 0 6 6 3 10 -10 10 -13 0 -16 -4 -10 -10z"/>
<path d="M4973 565 c0 -8 4 -12 9 -9 5 3 6 10 3 15 -9 13 -12 11 -12 -6z"/>
<path d="M5993 565 c0 -8 4 -12 9 -9 5 3 6 10 3 15 -9 13 -12 11 -12 -6z"/>
<path d="M1435 560 c-3 -5 -1 -10 4 -10 6 0 11 5 11 10 0 6 -2 10 -4 10 -3 0
-8 -4 -11 -10z"/>
<path d="M1713 555 c0 -8 4 -12 9 -9 4 3 8 9 8 15 0 5 -4 9 -8 9 -5 0 -9 -7
-9 -15z"/>
<path d="M2430 559 c0 -5 5 -7 10 -4 6 3 10 8 10 11 0 2 -4 4 -10 4 -5 0 -10
-5 -10 -11z"/>
<path d="M3504 562 c4 -3 14 -7 22 -8 9 -1 13 0 10 4 -4 3 -14 7 -22 8 -9 1
-13 0 -10 -4z"/>
<path d="M3710 559 c0 -5 5 -7 10 -4 6 3 10 8 10 11 0 2 -4 4 -10 4 -5 0 -10
-5 -10 -11z"/>
<path d="M4166 558 c3 -5 10 -6 15 -3 13 9 11 12 -6 12 -8 0 -12 -4 -9 -9z"/>
<path d="M4456 558 c3 -5 10 -6 15 -3 13 9 11 12 -6 12 -8 0 -12 -4 -9 -9z"/>
<path d="M4899 553 c-13 -16 -12 -17 4 -4 9 7 17 15 17 17 0 8 -8 3 -21 -13z"/>
<path d="M5000 566 c0 -2 8 -10 18 -17 15 -13 16 -12 3 4 -13 16 -21 21 -21
13z"/>
<path d="M5126 558 c3 -5 10 -6 15 -3 13 9 11 12 -6 12 -8 0 -12 -4 -9 -9z"/>
</g>
</svg>
